<svg width="375" height="57" viewBox="0 0 375 57" fill="none" xmlns="http://www.w3.org/2000/svg">
<mask id="path-1-outside-1_264_620" maskUnits="userSpaceOnUse" x="0" y="0" width="375" height="57" fill="black">
<rect fill="white" width="375" height="57"/>
<path d="M29.72 54.416C25.736 54.416 22.04 53.792 18.632 52.544C15.272 51.248 12.344 49.424 9.848 47.072C7.4 44.72 5.48 41.96 4.088 38.792C2.696 35.576 2 32.048 2 28.208C2 24.368 2.696 20.864 4.088 17.696C5.48 14.48 7.4 11.696 9.848 9.344C12.344 6.992 15.272 5.192 18.632 3.944C22.04 2.648 25.736 2 29.72 2C34.376 2 38.528 2.816 42.176 4.448C45.872 6.08 48.944 8.432 51.392 11.504L42.32 19.712C40.688 17.792 38.888 16.328 36.92 15.32C35 14.312 32.84 13.808 30.44 13.808C28.376 13.808 26.48 14.144 24.752 14.816C23.024 15.488 21.536 16.472 20.288 17.768C19.088 19.016 18.128 20.528 17.408 22.304C16.736 24.08 16.4 26.048 16.4 28.208C16.4 30.368 16.736 32.336 17.408 34.112C18.128 35.888 19.088 37.424 20.288 38.72C21.536 39.968 23.024 40.928 24.752 41.6C26.48 42.272 28.376 42.608 30.44 42.608C32.84 42.608 35 42.104 36.92 41.096C38.888 40.088 40.688 38.624 42.32 36.704L51.392 44.912C48.944 47.936 45.872 50.288 42.176 51.968C38.528 53.6 34.376 54.416 29.72 54.416Z"/>
<path d="M82.8296 54.416C78.7976 54.416 75.0776 53.768 71.6696 52.472C68.2616 51.176 65.2856 49.352 62.7416 47C60.2456 44.6 58.3016 41.816 56.9096 38.648C55.5176 35.48 54.8216 32 54.8216 28.208C54.8216 24.416 55.5176 20.936 56.9096 17.768C58.3016 14.6 60.2456 11.84 62.7416 9.488C65.2856 7.088 68.2616 5.24 71.6696 3.944C75.0776 2.648 78.7976 2 82.8296 2C86.9096 2 90.6296 2.648 93.9896 3.944C97.3976 5.24 100.35 7.088 102.846 9.488C105.342 11.84 107.286 14.6 108.678 17.768C110.118 20.936 110.838 24.416 110.838 28.208C110.838 32 110.118 35.504 108.678 38.72C107.286 41.888 105.342 44.648 102.846 47C100.35 49.352 97.3976 51.176 93.9896 52.472C90.6296 53.768 86.9096 54.416 82.8296 54.416ZM82.8296 42.608C84.7496 42.608 86.5256 42.272 88.1576 41.6C89.8376 40.928 91.2776 39.968 92.4776 38.72C93.7256 37.424 94.6856 35.888 95.3576 34.112C96.0776 32.336 96.4376 30.368 96.4376 28.208C96.4376 26 96.0776 24.032 95.3576 22.304C94.6856 20.528 93.7256 19.016 92.4776 17.768C91.2776 16.472 89.8376 15.488 88.1576 14.816C86.5256 14.144 84.7496 13.808 82.8296 13.808C80.9096 13.808 79.1096 14.144 77.4296 14.816C75.7976 15.488 74.3576 16.472 73.1096 17.768C71.9096 19.016 70.9496 20.528 70.2296 22.304C69.5576 24.032 69.2216 26 69.2216 28.208C69.2216 30.368 69.5576 32.336 70.2296 34.112C70.9496 35.888 71.9096 37.424 73.1096 38.72C74.3576 39.968 75.7976 40.928 77.4296 41.6C79.1096 42.272 80.9096 42.608 82.8296 42.608Z"/>
<path d="M119.024 53.408V3.008H130.76L158.552 36.56H153.008V3.008H166.976V53.408H155.24L127.448 19.856H132.992V53.408H119.024Z"/>
<path d="M188.48 53.408V14.312H173V3.008H218.144V14.312H202.736V53.408H188.48Z"/>
<path d="M215.596 53.408L237.844 3.008H251.884L274.204 53.408H259.372L241.948 9.992H247.564L230.14 53.408H215.596ZM227.764 43.616L231.436 33.104H256.06L259.732 43.616H227.764Z"/>
<path d="M303.39 54.416C299.406 54.416 295.71 53.792 292.302 52.544C288.942 51.248 286.014 49.424 283.518 47.072C281.07 44.72 279.15 41.96 277.758 38.792C276.366 35.576 275.67 32.048 275.67 28.208C275.67 24.368 276.366 20.864 277.758 17.696C279.15 14.48 281.07 11.696 283.518 9.344C286.014 6.992 288.942 5.192 292.302 3.944C295.71 2.648 299.406 2 303.39 2C308.046 2 312.198 2.816 315.846 4.448C319.542 6.08 322.614 8.432 325.062 11.504L315.99 19.712C314.358 17.792 312.558 16.328 310.59 15.32C308.67 14.312 306.51 13.808 304.11 13.808C302.046 13.808 300.15 14.144 298.422 14.816C296.694 15.488 295.206 16.472 293.958 17.768C292.758 19.016 291.798 20.528 291.078 22.304C290.406 24.08 290.07 26.048 290.07 28.208C290.07 30.368 290.406 32.336 291.078 34.112C291.798 35.888 292.758 37.424 293.958 38.72C295.206 39.968 296.694 40.928 298.422 41.6C300.15 42.272 302.046 42.608 304.11 42.608C306.51 42.608 308.67 42.104 310.59 41.096C312.558 40.088 314.358 38.624 315.99 36.704L325.062 44.912C322.614 47.936 319.542 50.288 315.846 51.968C312.198 53.6 308.046 54.416 303.39 54.416Z"/>
<path d="M342.445 53.408V14.312H326.965V3.008H372.109V14.312H356.701V53.408H342.445Z"/>
</mask>
<path d="M29.72 54.416C25.736 54.416 22.04 53.792 18.632 52.544C15.272 51.248 12.344 49.424 9.848 47.072C7.4 44.72 5.48 41.96 4.088 38.792C2.696 35.576 2 32.048 2 28.208C2 24.368 2.696 20.864 4.088 17.696C5.48 14.48 7.4 11.696 9.848 9.344C12.344 6.992 15.272 5.192 18.632 3.944C22.04 2.648 25.736 2 29.72 2C34.376 2 38.528 2.816 42.176 4.448C45.872 6.08 48.944 8.432 51.392 11.504L42.32 19.712C40.688 17.792 38.888 16.328 36.92 15.32C35 14.312 32.84 13.808 30.44 13.808C28.376 13.808 26.48 14.144 24.752 14.816C23.024 15.488 21.536 16.472 20.288 17.768C19.088 19.016 18.128 20.528 17.408 22.304C16.736 24.08 16.4 26.048 16.4 28.208C16.4 30.368 16.736 32.336 17.408 34.112C18.128 35.888 19.088 37.424 20.288 38.72C21.536 39.968 23.024 40.928 24.752 41.6C26.48 42.272 28.376 42.608 30.44 42.608C32.84 42.608 35 42.104 36.92 41.096C38.888 40.088 40.688 38.624 42.32 36.704L51.392 44.912C48.944 47.936 45.872 50.288 42.176 51.968C38.528 53.6 34.376 54.416 29.72 54.416Z" fill="#FFFFF6"/>
<path d="M82.8296 54.416C78.7976 54.416 75.0776 53.768 71.6696 52.472C68.2616 51.176 65.2856 49.352 62.7416 47C60.2456 44.6 58.3016 41.816 56.9096 38.648C55.5176 35.48 54.8216 32 54.8216 28.208C54.8216 24.416 55.5176 20.936 56.9096 17.768C58.3016 14.6 60.2456 11.84 62.7416 9.488C65.2856 7.088 68.2616 5.24 71.6696 3.944C75.0776 2.648 78.7976 2 82.8296 2C86.9096 2 90.6296 2.648 93.9896 3.944C97.3976 5.24 100.35 7.088 102.846 9.488C105.342 11.84 107.286 14.6 108.678 17.768C110.118 20.936 110.838 24.416 110.838 28.208C110.838 32 110.118 35.504 108.678 38.72C107.286 41.888 105.342 44.648 102.846 47C100.35 49.352 97.3976 51.176 93.9896 52.472C90.6296 53.768 86.9096 54.416 82.8296 54.416ZM82.8296 42.608C84.7496 42.608 86.5256 42.272 88.1576 41.6C89.8376 40.928 91.2776 39.968 92.4776 38.72C93.7256 37.424 94.6856 35.888 95.3576 34.112C96.0776 32.336 96.4376 30.368 96.4376 28.208C96.4376 26 96.0776 24.032 95.3576 22.304C94.6856 20.528 93.7256 19.016 92.4776 17.768C91.2776 16.472 89.8376 15.488 88.1576 14.816C86.5256 14.144 84.7496 13.808 82.8296 13.808C80.9096 13.808 79.1096 14.144 77.4296 14.816C75.7976 15.488 74.3576 16.472 73.1096 17.768C71.9096 19.016 70.9496 20.528 70.2296 22.304C69.5576 24.032 69.2216 26 69.2216 28.208C69.2216 30.368 69.5576 32.336 70.2296 34.112C70.9496 35.888 71.9096 37.424 73.1096 38.72C74.3576 39.968 75.7976 40.928 77.4296 41.6C79.1096 42.272 80.9096 42.608 82.8296 42.608Z" fill="#FFFFF6"/>
<path d="M119.024 53.408V3.008H130.76L158.552 36.56H153.008V3.008H166.976V53.408H155.24L127.448 19.856H132.992V53.408H119.024Z" fill="#FFFFF6"/>
<path d="M188.48 53.408V14.312H173V3.008H218.144V14.312H202.736V53.408H188.48Z" fill="#FFFFF6"/>
<path d="M215.596 53.408L237.844 3.008H251.884L274.204 53.408H259.372L241.948 9.992H247.564L230.14 53.408H215.596ZM227.764 43.616L231.436 33.104H256.06L259.732 43.616H227.764Z" fill="#FFFFF6"/>
<path d="M303.39 54.416C299.406 54.416 295.71 53.792 292.302 52.544C288.942 51.248 286.014 49.424 283.518 47.072C281.07 44.72 279.15 41.96 277.758 38.792C276.366 35.576 275.67 32.048 275.67 28.208C275.67 24.368 276.366 20.864 277.758 17.696C279.15 14.48 281.07 11.696 283.518 9.344C286.014 6.992 288.942 5.192 292.302 3.944C295.71 2.648 299.406 2 303.39 2C308.046 2 312.198 2.816 315.846 4.448C319.542 6.08 322.614 8.432 325.062 11.504L315.99 19.712C314.358 17.792 312.558 16.328 310.59 15.32C308.67 14.312 306.51 13.808 304.11 13.808C302.046 13.808 300.15 14.144 298.422 14.816C296.694 15.488 295.206 16.472 293.958 17.768C292.758 19.016 291.798 20.528 291.078 22.304C290.406 24.08 290.07 26.048 290.07 28.208C290.07 30.368 290.406 32.336 291.078 34.112C291.798 35.888 292.758 37.424 293.958 38.72C295.206 39.968 296.694 40.928 298.422 41.6C300.15 42.272 302.046 42.608 304.11 42.608C306.51 42.608 308.67 42.104 310.59 41.096C312.558 40.088 314.358 38.624 315.99 36.704L325.062 44.912C322.614 47.936 319.542 50.288 315.846 51.968C312.198 53.6 308.046 54.416 303.39 54.416Z" fill="#FFFFF6"/>
<path d="M342.445 53.408V14.312H326.965V3.008H372.109V14.312H356.701V53.408H342.445Z" fill="#FFFFF6"/>
<path d="M29.72 54.416C25.736 54.416 22.04 53.792 18.632 52.544C15.272 51.248 12.344 49.424 9.848 47.072C7.4 44.72 5.48 41.96 4.088 38.792C2.696 35.576 2 32.048 2 28.208C2 24.368 2.696 20.864 4.088 17.696C5.48 14.48 7.4 11.696 9.848 9.344C12.344 6.992 15.272 5.192 18.632 3.944C22.04 2.648 25.736 2 29.72 2C34.376 2 38.528 2.816 42.176 4.448C45.872 6.08 48.944 8.432 51.392 11.504L42.32 19.712C40.688 17.792 38.888 16.328 36.92 15.32C35 14.312 32.84 13.808 30.44 13.808C28.376 13.808 26.48 14.144 24.752 14.816C23.024 15.488 21.536 16.472 20.288 17.768C19.088 19.016 18.128 20.528 17.408 22.304C16.736 24.08 16.4 26.048 16.4 28.208C16.4 30.368 16.736 32.336 17.408 34.112C18.128 35.888 19.088 37.424 20.288 38.72C21.536 39.968 23.024 40.928 24.752 41.6C26.48 42.272 28.376 42.608 30.44 42.608C32.84 42.608 35 42.104 36.92 41.096C38.888 40.088 40.688 38.624 42.32 36.704L51.392 44.912C48.944 47.936 45.872 50.288 42.176 51.968C38.528 53.6 34.376 54.416 29.72 54.416Z" stroke="black" stroke-width="4" stroke-linejoin="bevel" mask="url(#path-1-outside-1_264_620)"/>
<path d="M82.8296 54.416C78.7976 54.416 75.0776 53.768 71.6696 52.472C68.2616 51.176 65.2856 49.352 62.7416 47C60.2456 44.6 58.3016 41.816 56.9096 38.648C55.5176 35.48 54.8216 32 54.8216 28.208C54.8216 24.416 55.5176 20.936 56.9096 17.768C58.3016 14.6 60.2456 11.84 62.7416 9.488C65.2856 7.088 68.2616 5.24 71.6696 3.944C75.0776 2.648 78.7976 2 82.8296 2C86.9096 2 90.6296 2.648 93.9896 3.944C97.3976 5.24 100.35 7.088 102.846 9.488C105.342 11.84 107.286 14.6 108.678 17.768C110.118 20.936 110.838 24.416 110.838 28.208C110.838 32 110.118 35.504 108.678 38.72C107.286 41.888 105.342 44.648 102.846 47C100.35 49.352 97.3976 51.176 93.9896 52.472C90.6296 53.768 86.9096 54.416 82.8296 54.416ZM82.8296 42.608C84.7496 42.608 86.5256 42.272 88.1576 41.6C89.8376 40.928 91.2776 39.968 92.4776 38.72C93.7256 37.424 94.6856 35.888 95.3576 34.112C96.0776 32.336 96.4376 30.368 96.4376 28.208C96.4376 26 96.0776 24.032 95.3576 22.304C94.6856 20.528 93.7256 19.016 92.4776 17.768C91.2776 16.472 89.8376 15.488 88.1576 14.816C86.5256 14.144 84.7496 13.808 82.8296 13.808C80.9096 13.808 79.1096 14.144 77.4296 14.816C75.7976 15.488 74.3576 16.472 73.1096 17.768C71.9096 19.016 70.9496 20.528 70.2296 22.304C69.5576 24.032 69.2216 26 69.2216 28.208C69.2216 30.368 69.5576 32.336 70.2296 34.112C70.9496 35.888 71.9096 37.424 73.1096 38.72C74.3576 39.968 75.7976 40.928 77.4296 41.6C79.1096 42.272 80.9096 42.608 82.8296 42.608Z" stroke="black" stroke-width="4" stroke-linejoin="bevel" mask="url(#path-1-outside-1_264_620)"/>
<path d="M119.024 53.408V3.008H130.76L158.552 36.56H153.008V3.008H166.976V53.408H155.24L127.448 19.856H132.992V53.408H119.024Z" stroke="black" stroke-width="4" stroke-linejoin="bevel" mask="url(#path-1-outside-1_264_620)"/>
<path d="M188.48 53.408V14.312H173V3.008H218.144V14.312H202.736V53.408H188.48Z" stroke="black" stroke-width="4" stroke-linejoin="bevel" mask="url(#path-1-outside-1_264_620)"/>
<path d="M215.596 53.408L237.844 3.008H251.884L274.204 53.408H259.372L241.948 9.992H247.564L230.14 53.408H215.596ZM227.764 43.616L231.436 33.104H256.06L259.732 43.616H227.764Z" stroke="black" stroke-width="4" stroke-linejoin="bevel" mask="url(#path-1-outside-1_264_620)"/>
<path d="M303.39 54.416C299.406 54.416 295.71 53.792 292.302 52.544C288.942 51.248 286.014 49.424 283.518 47.072C281.07 44.72 279.15 41.96 277.758 38.792C276.366 35.576 275.67 32.048 275.67 28.208C275.67 24.368 276.366 20.864 277.758 17.696C279.15 14.48 281.07 11.696 283.518 9.344C286.014 6.992 288.942 5.192 292.302 3.944C295.71 2.648 299.406 2 303.39 2C308.046 2 312.198 2.816 315.846 4.448C319.542 6.08 322.614 8.432 325.062 11.504L315.99 19.712C314.358 17.792 312.558 16.328 310.59 15.32C308.67 14.312 306.51 13.808 304.11 13.808C302.046 13.808 300.15 14.144 298.422 14.816C296.694 15.488 295.206 16.472 293.958 17.768C292.758 19.016 291.798 20.528 291.078 22.304C290.406 24.08 290.07 26.048 290.07 28.208C290.07 30.368 290.406 32.336 291.078 34.112C291.798 35.888 292.758 37.424 293.958 38.72C295.206 39.968 296.694 40.928 298.422 41.6C300.15 42.272 302.046 42.608 304.11 42.608C306.51 42.608 308.67 42.104 310.59 41.096C312.558 40.088 314.358 38.624 315.99 36.704L325.062 44.912C322.614 47.936 319.542 50.288 315.846 51.968C312.198 53.6 308.046 54.416 303.39 54.416Z" stroke="black" stroke-width="4" stroke-linejoin="bevel" mask="url(#path-1-outside-1_264_620)"/>
<path d="M342.445 53.408V14.312H326.965V3.008H372.109V14.312H356.701V53.408H342.445Z" stroke="black" stroke-width="4" stroke-linejoin="bevel" mask="url(#path-1-outside-1_264_620)"/>
</svg>
