<svg width="237" height="57" viewBox="0 0 237 57" fill="none" xmlns="http://www.w3.org/2000/svg">
<mask id="path-1-outside-1_27_544" maskUnits="userSpaceOnUse" x="-0.0400085" y="-0.592041" width="237" height="58" fill="black">
<rect fill="white" x="-0.0400085" y="-0.592041" width="237" height="58"/>
<path d="M1.99999 53.408V3.00796H13.736L41.528 36.56H35.984V3.00796H49.952V53.408H38.216L10.424 19.856H15.968V53.408H1.99999ZM73.8318 22.52H97.2318V33.176H73.8318V22.52ZM74.8398 42.392H101.192V53.408H60.7278V3.00796H100.256V14.024H74.8398V42.392ZM121.576 53.408L105.232 3.00796H119.92L133.672 46.64H126.256L140.728 3.00796H153.832L167.512 46.64H160.384L174.568 3.00796H188.176L171.832 53.408H156.568L144.904 16.328H149.008L136.84 53.408H121.576ZM211.716 54.416C207.588 54.416 203.604 53.912 199.764 52.904C195.972 51.848 192.876 50.504 190.476 48.872L195.156 38.36C197.412 39.8 200.004 41 202.932 41.96C205.908 42.872 208.86 43.328 211.788 43.328C213.756 43.328 215.34 43.16 216.54 42.824C217.74 42.44 218.604 41.96 219.132 41.384C219.708 40.76 219.996 40.04 219.996 39.224C219.996 38.072 219.468 37.16 218.412 36.488C217.356 35.816 215.988 35.264 214.308 34.832C212.628 34.4 210.756 33.968 208.692 33.536C206.676 33.104 204.636 32.552 202.572 31.88C200.556 31.208 198.708 30.344 197.028 29.288C195.348 28.184 193.98 26.768 192.924 25.04C191.868 23.264 191.34 21.032 191.34 18.344C191.34 15.32 192.156 12.584 193.788 10.136C195.468 7.68796 197.964 5.71996 201.276 4.23196C204.588 2.74396 208.716 1.99996 213.66 1.99996C216.972 1.99996 220.212 2.38396 223.38 3.15196C226.596 3.87196 229.452 4.95196 231.948 6.39195L227.556 16.976C225.156 15.68 222.78 14.72 220.428 14.096C218.076 13.424 215.796 13.088 213.588 13.088C211.62 13.088 210.036 13.304 208.836 13.736C207.636 14.12 206.772 14.648 206.244 15.32C205.716 15.992 205.452 16.76 205.452 17.624C205.452 18.728 205.956 19.616 206.964 20.288C208.02 20.912 209.388 21.44 211.068 21.872C212.796 22.256 214.668 22.664 216.684 23.096C218.748 23.528 220.788 24.08 222.804 24.752C224.868 25.376 226.74 26.24 228.42 27.344C230.1 28.4 231.444 29.816 232.452 31.592C233.508 33.32 234.036 35.504 234.036 38.144C234.036 41.072 233.196 43.784 231.516 46.28C229.884 48.728 227.412 50.696 224.1 52.184C220.836 53.672 216.708 54.416 211.716 54.416Z"/>
</mask>
<path d="M1.99999 53.408V3.00796H13.736L41.528 36.56H35.984V3.00796H49.952V53.408H38.216L10.424 19.856H15.968V53.408H1.99999ZM73.8318 22.52H97.2318V33.176H73.8318V22.52ZM74.8398 42.392H101.192V53.408H60.7278V3.00796H100.256V14.024H74.8398V42.392ZM121.576 53.408L105.232 3.00796H119.92L133.672 46.64H126.256L140.728 3.00796H153.832L167.512 46.64H160.384L174.568 3.00796H188.176L171.832 53.408H156.568L144.904 16.328H149.008L136.84 53.408H121.576ZM211.716 54.416C207.588 54.416 203.604 53.912 199.764 52.904C195.972 51.848 192.876 50.504 190.476 48.872L195.156 38.36C197.412 39.8 200.004 41 202.932 41.96C205.908 42.872 208.86 43.328 211.788 43.328C213.756 43.328 215.34 43.16 216.54 42.824C217.74 42.44 218.604 41.96 219.132 41.384C219.708 40.76 219.996 40.04 219.996 39.224C219.996 38.072 219.468 37.16 218.412 36.488C217.356 35.816 215.988 35.264 214.308 34.832C212.628 34.4 210.756 33.968 208.692 33.536C206.676 33.104 204.636 32.552 202.572 31.88C200.556 31.208 198.708 30.344 197.028 29.288C195.348 28.184 193.98 26.768 192.924 25.04C191.868 23.264 191.34 21.032 191.34 18.344C191.34 15.32 192.156 12.584 193.788 10.136C195.468 7.68796 197.964 5.71996 201.276 4.23196C204.588 2.74396 208.716 1.99996 213.66 1.99996C216.972 1.99996 220.212 2.38396 223.38 3.15196C226.596 3.87196 229.452 4.95196 231.948 6.39195L227.556 16.976C225.156 15.68 222.78 14.72 220.428 14.096C218.076 13.424 215.796 13.088 213.588 13.088C211.62 13.088 210.036 13.304 208.836 13.736C207.636 14.12 206.772 14.648 206.244 15.32C205.716 15.992 205.452 16.76 205.452 17.624C205.452 18.728 205.956 19.616 206.964 20.288C208.02 20.912 209.388 21.44 211.068 21.872C212.796 22.256 214.668 22.664 216.684 23.096C218.748 23.528 220.788 24.08 222.804 24.752C224.868 25.376 226.74 26.24 228.42 27.344C230.1 28.4 231.444 29.816 232.452 31.592C233.508 33.32 234.036 35.504 234.036 38.144C234.036 41.072 233.196 43.784 231.516 46.28C229.884 48.728 227.412 50.696 224.1 52.184C220.836 53.672 216.708 54.416 211.716 54.416Z" fill="#FFFFF6"/>
<path d="M1.99999 53.408H-8.58307e-06L1.99999 55.408V53.408ZM1.99999 3.00796V1.00796L-8.58307e-06 3.00796H1.99999ZM13.736 3.00796L15.2762 1.73214L13.736 1.00796V3.00796ZM41.528 36.56V38.56L43.0682 35.2841L41.528 36.56ZM35.984 36.56H33.984L35.984 38.56V36.56ZM35.984 3.00796V1.00796L33.984 3.00796H35.984ZM49.952 3.00796H51.952L49.952 1.00796V3.00796ZM49.952 53.408V55.408L51.952 53.408H49.952ZM38.216 53.408L36.6758 54.6838L38.216 55.408V53.408ZM10.424 19.856V17.856L8.88376 21.1318L10.424 19.856ZM15.968 19.856H17.968L15.968 17.856V19.856ZM15.968 53.408V55.408L17.968 53.408H15.968ZM1.99999 53.408H3.99999V3.00796H1.99999H-8.58307e-06V53.408H1.99999ZM1.99999 3.00796V5.00796H13.736V3.00796V1.00796H1.99999V3.00796ZM13.736 3.00796L12.1958 4.28377L39.9878 37.8358L41.528 36.56L43.0682 35.2841L15.2762 1.73214L13.736 3.00796ZM41.528 36.56V34.56H35.984V36.56V38.56H41.528V36.56ZM35.984 36.56H37.984V3.00796H35.984H33.984V36.56H35.984ZM35.984 3.00796V5.00796H49.952V3.00796V1.00796H35.984V3.00796ZM49.952 3.00796H47.952V53.408H49.952H51.952V3.00796H49.952ZM49.952 53.408V51.408H38.216V53.408V55.408H49.952V53.408ZM38.216 53.408L39.7562 52.1321L11.9642 18.5801L10.424 19.856L8.88376 21.1318L36.6758 54.6838L38.216 53.408ZM10.424 19.856V21.856H15.968V19.856V17.856H10.424V19.856ZM15.968 19.856H13.968V53.408H15.968H17.968V19.856H15.968ZM15.968 53.408V51.408H1.99999V53.408V55.408H15.968V53.408ZM73.8318 22.52V20.52L71.8318 22.52H73.8318ZM97.2318 22.52H99.2318L97.2318 20.52V22.52ZM97.2318 33.176V35.176L99.2318 33.176H97.2318ZM73.8318 33.176H71.8318L73.8318 35.176V33.176ZM74.8398 42.392H72.8398L74.8398 44.392V42.392ZM101.192 42.392H103.192L101.192 40.392V42.392ZM101.192 53.408V55.408L103.192 53.408H101.192ZM60.7278 53.408H58.7278L60.7278 55.408V53.408ZM60.7278 3.00796V1.00796L58.7278 3.00796H60.7278ZM100.256 3.00796H102.256L100.256 1.00796V3.00796ZM100.256 14.024V16.024L102.256 14.024H100.256ZM74.8398 14.024V12.024L72.8398 14.024H74.8398ZM73.8318 22.52V24.52H97.2318V22.52V20.52H73.8318V22.52ZM97.2318 22.52H95.2318V33.176H97.2318H99.2318V22.52H97.2318ZM97.2318 33.176V31.176H73.8318V33.176V35.176H97.2318V33.176ZM73.8318 33.176H75.8318V22.52H73.8318H71.8318V33.176H73.8318ZM74.8398 42.392V44.392H101.192V42.392V40.392H74.8398V42.392ZM101.192 42.392H99.1918V53.408H101.192H103.192V42.392H101.192ZM101.192 53.408V51.408H60.7278V53.408V55.408H101.192V53.408ZM60.7278 53.408H62.7278V3.00796H60.7278H58.7278V53.408H60.7278ZM60.7278 3.00796V5.00796H100.256V3.00796V1.00796H60.7278V3.00796ZM100.256 3.00796H98.2558V14.024H100.256H102.256V3.00796H100.256ZM100.256 14.024V12.024H74.8398V14.024V16.024H100.256V14.024ZM74.8398 14.024H72.8398V42.392H74.8398H76.8398V14.024H74.8398ZM121.576 53.408L119.673 54.0249L121.576 55.408V53.408ZM105.232 3.00796V1.00796L103.329 3.6249L105.232 3.00796ZM119.92 3.00796L121.827 2.40675L119.92 1.00796V3.00796ZM133.672 46.64V48.64L135.579 46.0387L133.672 46.64ZM126.256 46.64L124.357 46.0103L126.256 48.64V46.64ZM140.728 3.00796V1.00796L138.829 2.37832L140.728 3.00796ZM153.832 3.00796L155.74 2.40961L153.832 1.00796V3.00796ZM167.512 46.64V48.64L169.42 46.0416L167.512 46.64ZM160.384 46.64L158.482 46.0216L160.384 48.64V46.64ZM174.568 3.00796V1.00796L172.666 2.38964L174.568 3.00796ZM188.176 3.00796L190.078 3.6249L188.176 1.00796V3.00796ZM171.832 53.408V55.408L173.734 54.0249L171.832 53.408ZM156.568 53.408L154.66 54.0081L156.568 55.408V53.408ZM144.904 16.328V14.328L142.996 16.9281L144.904 16.328ZM149.008 16.328L150.908 16.9515L149.008 14.328V16.328ZM136.84 53.408V55.408L138.74 54.0316L136.84 53.408ZM121.576 53.408L123.478 52.791L107.134 2.39101L105.232 3.00796L103.329 3.6249L119.673 54.0249L121.576 53.408ZM105.232 3.00796V5.00796H119.92V3.00796V1.00796H105.232V3.00796ZM119.92 3.00796L118.012 3.60916L131.764 47.2412L133.672 46.64L135.579 46.0387L121.827 2.40675L119.92 3.00796ZM133.672 46.64V44.64H126.256V46.64V48.64H133.672V46.64ZM126.256 46.64L128.154 47.2696L142.626 3.63759L140.728 3.00796L138.829 2.37832L124.357 46.0103L126.256 46.64ZM140.728 3.00796V5.00796H153.832V3.00796V1.00796H140.728V3.00796ZM153.832 3.00796L151.923 3.6063L165.603 47.2383L167.512 46.64L169.42 46.0416L155.74 2.40961L153.832 3.00796ZM167.512 46.64V44.64H160.384V46.64V48.64H167.512V46.64ZM160.384 46.64L162.286 47.2583L176.47 3.62627L174.568 3.00796L172.666 2.38964L158.482 46.0216L160.384 46.64ZM174.568 3.00796V5.00796H188.176V3.00796V1.00796H174.568V3.00796ZM188.176 3.00796L186.273 2.39101L169.929 52.791L171.832 53.408L173.734 54.0249L190.078 3.6249L188.176 3.00796ZM171.832 53.408V51.408H156.568V53.408V55.408H171.832V53.408ZM156.568 53.408L158.476 52.8078L146.812 15.7278L144.904 16.328L142.996 16.9281L154.66 54.0081L156.568 53.408ZM144.904 16.328V18.328H149.008V16.328V14.328H144.904V16.328ZM149.008 16.328L147.107 15.7044L134.939 52.7844L136.84 53.408L138.74 54.0316L150.908 16.9515L149.008 16.328ZM136.84 53.408V51.408H121.576V53.408V55.408H136.84V53.408ZM199.764 52.904L199.227 54.8306L199.256 54.8384L199.764 52.904ZM190.476 48.872L188.649 48.0585L189.351 50.5258L190.476 48.872ZM195.156 38.36L196.232 36.6741L193.329 37.5465L195.156 38.36ZM202.932 41.96L202.309 43.8604L202.346 43.8722L202.932 41.96ZM216.54 42.824L217.079 44.7499L217.149 44.7288L216.54 42.824ZM219.132 41.384L217.662 40.0274L217.657 40.0325L219.132 41.384ZM218.412 36.488L217.338 38.1753L218.412 36.488ZM214.308 34.832L214.806 32.895L214.308 34.832ZM208.692 33.536L208.273 35.4916L208.282 35.4935L208.692 33.536ZM202.572 31.88L201.939 33.7774L201.953 33.7817L202.572 31.88ZM197.028 29.288L195.929 30.9594L195.963 30.9812L197.028 29.288ZM192.924 25.04L191.205 26.0621L191.217 26.0829L192.924 25.04ZM193.788 10.136L192.139 9.00427L192.124 9.02656L193.788 10.136ZM201.276 4.23196L200.456 2.40762L201.276 4.23196ZM223.38 3.15196L222.909 5.09566L222.943 5.10364L223.38 3.15196ZM231.948 6.39195L233.795 7.15851L232.947 4.65958L231.948 6.39195ZM227.556 16.976L226.605 18.7358L229.403 17.7425L227.556 16.976ZM220.428 14.096L219.878 16.019L219.915 16.0291L220.428 14.096ZM208.836 13.736L209.445 15.6408L209.513 15.6177L208.836 13.736ZM206.244 15.32L204.671 14.0843L206.244 15.32ZM206.964 20.288L205.854 21.9521L205.946 22.0098L206.964 20.288ZM211.068 21.872L210.57 23.8089L210.634 23.8243L211.068 21.872ZM216.684 23.096L216.265 25.0516L216.274 25.0535L216.684 23.096ZM222.804 24.752L222.171 26.6493L222.225 26.6664L222.804 24.752ZM228.42 27.344L227.321 29.0154L227.355 29.0372L228.42 27.344ZM232.452 31.592L230.712 32.5792L230.745 32.6349L232.452 31.592ZM231.516 46.28L229.857 45.1632L229.852 45.1706L231.516 46.28ZM224.1 52.184L223.28 50.3596L223.27 50.3641L224.1 52.184ZM211.716 54.416V52.416C207.752 52.416 203.939 51.9323 200.272 50.9695L199.764 52.904L199.256 54.8384C203.268 55.8916 207.423 56.416 211.716 56.416V54.416ZM199.764 52.904L200.3 50.9773C196.648 49.9603 193.769 48.6929 191.6 47.2181L190.476 48.872L189.351 50.5258C191.982 52.315 195.295 53.7356 199.227 54.8306L199.764 52.904ZM190.476 48.872L192.303 49.6854L196.983 39.1734L195.156 38.36L193.329 37.5465L188.649 48.0585L190.476 48.872ZM195.156 38.36L194.08 40.0458C196.496 41.5884 199.245 42.8559 202.309 43.8604L202.932 41.96L203.555 40.0595C200.763 39.1441 198.327 38.0115 196.232 36.6741L195.156 38.36ZM202.932 41.96L202.346 43.8722C205.5 44.8387 208.649 45.328 211.788 45.328V43.328V41.328C209.071 41.328 206.316 40.9052 203.518 40.0477L202.932 41.96ZM211.788 43.328V45.328C213.846 45.328 215.633 45.1549 217.079 44.7499L216.54 42.824L216 40.898C215.047 41.165 213.666 41.328 211.788 41.328V43.328ZM216.54 42.824L217.149 44.7288C218.498 44.2971 219.741 43.6796 220.606 42.7354L219.132 41.384L217.657 40.0325C217.467 40.2404 216.981 40.5828 215.93 40.9191L216.54 42.824ZM219.132 41.384L220.601 42.7405C221.503 41.7636 221.996 40.5648 221.996 39.224H219.996H217.996C217.996 39.5151 217.912 39.7563 217.662 40.0274L219.132 41.384ZM219.996 39.224H221.996C221.996 37.3204 221.059 35.8018 219.485 34.8006L218.412 36.488L217.338 38.1753C217.877 38.5181 217.996 38.8236 217.996 39.224H219.996ZM218.412 36.488L219.486 34.8006C218.198 33.9814 216.617 33.3607 214.806 32.895L214.308 34.832L213.81 36.7689C215.358 37.1672 216.513 37.6505 217.338 38.1753L218.412 36.488ZM214.308 34.832L214.806 32.895C213.091 32.454 211.189 32.0153 209.101 31.5784L208.692 33.536L208.282 35.4935C210.322 35.9206 212.164 36.3459 213.81 36.7689L214.308 34.832ZM208.692 33.536L209.111 31.5804C207.166 31.1636 205.193 30.6299 203.191 29.9782L202.572 31.88L201.953 33.7817C204.079 34.474 206.186 35.0443 208.273 35.4916L208.692 33.536ZM202.572 31.88L203.204 29.9826C201.329 29.3576 199.628 28.5599 198.092 27.5947L197.028 29.288L195.963 30.9812C197.788 32.1281 199.782 33.0583 201.939 33.7773L202.572 31.88ZM197.028 29.288L198.126 27.6165C196.695 26.6758 195.534 25.4752 194.63 23.9971L192.924 25.04L191.217 26.0829C192.426 28.0607 194.001 29.6921 195.929 30.9594L197.028 29.288ZM192.924 25.04L194.643 24.0178C193.818 22.6309 193.34 20.778 193.34 18.344H191.34H189.34C189.34 21.2859 189.917 23.8971 191.205 26.0621L192.924 25.04ZM191.34 18.344H193.34C193.34 15.7032 194.045 13.3553 195.452 11.2454L193.788 10.136L192.124 9.02656C190.266 11.8127 189.34 14.9368 189.34 18.344H191.34ZM193.788 10.136L195.437 11.2676C196.867 9.18327 199.044 7.42741 202.095 6.05629L201.276 4.23196L200.456 2.40762C196.884 4.0125 194.068 6.19265 192.139 9.00427L193.788 10.136ZM201.276 4.23196L202.095 6.05629C205.074 4.71794 208.902 3.99996 213.66 3.99996V1.99996V-4.43459e-05C208.529 -4.43459e-05 204.101 0.76997 200.456 2.40762L201.276 4.23196ZM213.66 1.99996V3.99996C216.816 3.99996 219.897 4.36565 222.909 5.09566L223.38 3.15196L223.851 1.20826C220.526 0.402257 217.128 -4.43459e-05 213.66 -4.43459e-05V1.99996ZM223.38 3.15196L222.943 5.10364C225.989 5.78566 228.651 6.79881 230.948 8.12433L231.948 6.39195L232.947 4.65958C230.253 3.10511 227.202 1.95826 223.817 1.20027L223.38 3.15196ZM231.948 6.39195L230.1 5.6254L225.708 16.2094L227.556 16.976L229.403 17.7425L233.795 7.15851L231.948 6.39195ZM227.556 16.976L228.506 15.2161C225.984 13.8542 223.462 12.8317 220.941 12.1628L220.428 14.096L219.915 16.0291C222.098 16.6082 224.328 17.5057 226.605 18.7358L227.556 16.976ZM220.428 14.096L220.977 12.1729C218.466 11.4553 216 11.088 213.588 11.088V13.088V15.088C215.591 15.088 217.686 15.3926 219.878 16.019L220.428 14.096ZM213.588 13.088V11.088C211.5 11.088 209.66 11.3135 208.158 11.8542L208.836 13.736L209.513 15.6177C210.411 15.2945 211.739 15.088 213.588 15.088V13.088ZM208.836 13.736L208.226 11.8311C206.816 12.2823 205.537 12.9816 204.671 14.0843L206.244 15.32L207.816 16.5556C208.006 16.3143 208.455 15.9576 209.445 15.6408L208.836 13.736ZM206.244 15.32L204.671 14.0843C203.863 15.1129 203.452 16.3172 203.452 17.624H205.452H207.452C207.452 17.2027 207.569 16.871 207.816 16.5556L206.244 15.32ZM205.452 17.624H203.452C203.452 19.47 204.354 20.9518 205.854 21.9521L206.964 20.288L208.073 18.6239C207.558 18.2802 207.452 17.9859 207.452 17.624H205.452ZM206.964 20.288L205.946 22.0098C207.216 22.7601 208.776 23.3478 210.57 23.8089L211.068 21.872L211.566 19.935C209.999 19.5321 208.823 19.0638 207.981 18.5661L206.964 20.288ZM211.068 21.872L210.634 23.8243C212.368 24.2096 214.245 24.6187 216.265 25.0516L216.684 23.096L217.103 21.1404C215.091 20.7092 213.224 20.3023 211.502 19.9196L211.068 21.872ZM216.684 23.096L216.274 25.0535C218.262 25.4696 220.228 26.0015 222.171 26.6493L222.804 24.752L223.436 22.8546C221.348 22.1584 219.233 21.5863 217.093 21.1384L216.684 23.096ZM222.804 24.752L222.225 26.6664C224.118 27.2388 225.813 28.0243 227.321 29.0154L228.42 27.344L229.518 25.6725C227.666 24.4556 225.617 23.5131 223.383 22.8375L222.804 24.752ZM228.42 27.344L227.355 29.0372C228.747 29.912 229.863 31.082 230.712 32.5792L232.452 31.592L234.191 30.6047C233.025 28.5499 231.452 26.8879 229.484 25.6507L228.42 27.344ZM232.452 31.592L230.745 32.6349C231.559 33.967 232.036 35.7625 232.036 38.144H234.036H236.036C236.036 35.2454 235.456 32.6729 234.158 30.5491L232.452 31.592ZM234.036 38.144H232.036C232.036 40.6626 231.321 42.9876 229.857 45.1632L231.516 46.28L233.175 47.3967C235.071 44.5803 236.036 41.4813 236.036 38.144H234.036ZM231.516 46.28L229.852 45.1706C228.472 47.2396 226.329 48.9897 223.28 50.3596L224.1 52.184L224.919 54.0083C228.494 52.4022 231.295 50.2163 233.18 47.3894L231.516 46.28ZM224.1 52.184L223.27 50.3641C220.348 51.6965 216.526 52.416 211.716 52.416V54.416V56.416C216.889 56.416 221.324 55.6475 224.929 54.0038L224.1 52.184Z" fill="black" mask="url(#path-1-outside-1_27_544)"/>
</svg>
