<svg width="330" height="57" viewBox="0 0 330 57" fill="none" xmlns="http://www.w3.org/2000/svg">
<mask id="path-1-outside-1_37_321" maskUnits="userSpaceOnUse" x="-0.0400391" y="-0.592041" width="330" height="58" fill="black">
<rect fill="white" x="-0.0400391" y="-0.592041" width="330" height="58"/>
<path d="M1.99996 53.408V3.00796H25.04C29.648 3.00796 33.608 3.75196 36.92 5.23996C40.28 6.72796 42.872 8.88796 44.696 11.72C46.52 14.504 47.432 17.816 47.432 21.656C47.432 25.448 46.52 28.736 44.696 31.52C42.872 34.304 40.28 36.464 36.92 38C33.608 39.488 29.648 40.232 25.04 40.232H9.91996L16.256 34.04V53.408H1.99996ZM16.256 35.552L9.91996 29H24.176C27.152 29 29.36 28.352 30.8 27.056C32.288 25.76 33.032 23.96 33.032 21.656C33.032 19.304 32.288 17.48 30.8 16.184C29.36 14.888 27.152 14.24 24.176 14.24H9.91996L16.256 7.68796V35.552ZM55.1028 53.408V3.00796H78.1428C82.7508 3.00796 86.7108 3.75196 90.0228 5.23996C93.3828 6.72796 95.9748 8.88796 97.7988 11.72C99.6228 14.504 100.535 17.816 100.535 21.656C100.535 25.448 99.6228 28.736 97.7988 31.52C95.9748 34.256 93.3828 36.368 90.0228 37.856C86.7108 39.296 82.7508 40.016 78.1428 40.016H63.0228L69.3588 34.04V53.408H55.1028ZM86.2788 53.408L73.7508 35.048H88.9428L101.543 53.408H86.2788ZM69.3588 35.552L63.0228 29H77.2788C80.2548 29 82.4628 28.352 83.9028 27.056C85.3908 25.76 86.1348 23.96 86.1348 21.656C86.1348 19.304 85.3908 17.48 83.9028 16.184C82.4628 14.888 80.2548 14.24 77.2788 14.24H63.0228L69.3588 7.68796V35.552ZM134.536 54.416C130.504 54.416 126.784 53.768 123.376 52.472C119.968 51.176 116.992 49.352 114.448 47C111.952 44.6 110.008 41.816 108.616 38.648C107.224 35.48 106.528 32 106.528 28.208C106.528 24.416 107.224 20.936 108.616 17.768C110.008 14.6 111.952 11.84 114.448 9.48796C116.992 7.08796 119.968 5.23996 123.376 3.94396C126.784 2.64796 130.504 1.99996 134.536 1.99996C138.616 1.99996 142.336 2.64796 145.696 3.94396C149.104 5.23996 152.056 7.08796 154.552 9.48796C157.048 11.84 158.992 14.6 160.384 17.768C161.824 20.936 162.544 24.416 162.544 28.208C162.544 32 161.824 35.504 160.384 38.72C158.992 41.888 157.048 44.648 154.552 47C152.056 49.352 149.104 51.176 145.696 52.472C142.336 53.768 138.616 54.416 134.536 54.416ZM134.536 42.608C136.456 42.608 138.232 42.272 139.864 41.6C141.544 40.928 142.984 39.968 144.184 38.72C145.432 37.424 146.392 35.888 147.064 34.112C147.784 32.336 148.144 30.368 148.144 28.208C148.144 26 147.784 24.032 147.064 22.304C146.392 20.528 145.432 19.016 144.184 17.768C142.984 16.472 141.544 15.488 139.864 14.816C138.232 14.144 136.456 13.808 134.536 13.808C132.616 13.808 130.816 14.144 129.136 14.816C127.504 15.488 126.064 16.472 124.816 17.768C123.616 19.016 122.656 20.528 121.936 22.304C121.264 24.032 120.928 26 120.928 28.208C120.928 30.368 121.264 32.336 121.936 34.112C122.656 35.888 123.616 37.424 124.816 38.72C126.064 39.968 127.504 40.928 129.136 41.6C130.816 42.272 132.616 42.608 134.536 42.608ZM183.978 25.112H207.234V36.128H183.978V25.112ZM184.986 53.408H170.73V3.00796H210.258V14.024H184.986V53.408ZM217.646 53.408V3.00796H231.902V53.408H217.646ZM242.764 53.408V3.00796H257.02V42.104H281.068V53.408H242.764ZM300.533 22.52H323.933V33.176H300.533V22.52ZM301.541 42.392H327.893V53.408H287.429V3.00796H326.957V14.024H301.541V42.392Z"/>
</mask>
<path d="M1.99996 53.408V3.00796H25.04C29.648 3.00796 33.608 3.75196 36.92 5.23996C40.28 6.72796 42.872 8.88796 44.696 11.72C46.52 14.504 47.432 17.816 47.432 21.656C47.432 25.448 46.52 28.736 44.696 31.52C42.872 34.304 40.28 36.464 36.92 38C33.608 39.488 29.648 40.232 25.04 40.232H9.91996L16.256 34.04V53.408H1.99996ZM16.256 35.552L9.91996 29H24.176C27.152 29 29.36 28.352 30.8 27.056C32.288 25.76 33.032 23.96 33.032 21.656C33.032 19.304 32.288 17.48 30.8 16.184C29.36 14.888 27.152 14.24 24.176 14.24H9.91996L16.256 7.68796V35.552ZM55.1028 53.408V3.00796H78.1428C82.7508 3.00796 86.7108 3.75196 90.0228 5.23996C93.3828 6.72796 95.9748 8.88796 97.7988 11.72C99.6228 14.504 100.535 17.816 100.535 21.656C100.535 25.448 99.6228 28.736 97.7988 31.52C95.9748 34.256 93.3828 36.368 90.0228 37.856C86.7108 39.296 82.7508 40.016 78.1428 40.016H63.0228L69.3588 34.04V53.408H55.1028ZM86.2788 53.408L73.7508 35.048H88.9428L101.543 53.408H86.2788ZM69.3588 35.552L63.0228 29H77.2788C80.2548 29 82.4628 28.352 83.9028 27.056C85.3908 25.76 86.1348 23.96 86.1348 21.656C86.1348 19.304 85.3908 17.48 83.9028 16.184C82.4628 14.888 80.2548 14.24 77.2788 14.24H63.0228L69.3588 7.68796V35.552ZM134.536 54.416C130.504 54.416 126.784 53.768 123.376 52.472C119.968 51.176 116.992 49.352 114.448 47C111.952 44.6 110.008 41.816 108.616 38.648C107.224 35.48 106.528 32 106.528 28.208C106.528 24.416 107.224 20.936 108.616 17.768C110.008 14.6 111.952 11.84 114.448 9.48796C116.992 7.08796 119.968 5.23996 123.376 3.94396C126.784 2.64796 130.504 1.99996 134.536 1.99996C138.616 1.99996 142.336 2.64796 145.696 3.94396C149.104 5.23996 152.056 7.08796 154.552 9.48796C157.048 11.84 158.992 14.6 160.384 17.768C161.824 20.936 162.544 24.416 162.544 28.208C162.544 32 161.824 35.504 160.384 38.72C158.992 41.888 157.048 44.648 154.552 47C152.056 49.352 149.104 51.176 145.696 52.472C142.336 53.768 138.616 54.416 134.536 54.416ZM134.536 42.608C136.456 42.608 138.232 42.272 139.864 41.6C141.544 40.928 142.984 39.968 144.184 38.72C145.432 37.424 146.392 35.888 147.064 34.112C147.784 32.336 148.144 30.368 148.144 28.208C148.144 26 147.784 24.032 147.064 22.304C146.392 20.528 145.432 19.016 144.184 17.768C142.984 16.472 141.544 15.488 139.864 14.816C138.232 14.144 136.456 13.808 134.536 13.808C132.616 13.808 130.816 14.144 129.136 14.816C127.504 15.488 126.064 16.472 124.816 17.768C123.616 19.016 122.656 20.528 121.936 22.304C121.264 24.032 120.928 26 120.928 28.208C120.928 30.368 121.264 32.336 121.936 34.112C122.656 35.888 123.616 37.424 124.816 38.72C126.064 39.968 127.504 40.928 129.136 41.6C130.816 42.272 132.616 42.608 134.536 42.608ZM183.978 25.112H207.234V36.128H183.978V25.112ZM184.986 53.408H170.73V3.00796H210.258V14.024H184.986V53.408ZM217.646 53.408V3.00796H231.902V53.408H217.646ZM242.764 53.408V3.00796H257.02V42.104H281.068V53.408H242.764ZM300.533 22.52H323.933V33.176H300.533V22.52ZM301.541 42.392H327.893V53.408H287.429V3.00796H326.957V14.024H301.541V42.392Z" fill="#FFFFF6"/>
<path d="M1.99996 53.408H-3.91006e-05L1.99996 55.408V53.408ZM1.99996 3.00796V1.00796L-3.91006e-05 3.00796H1.99996ZM36.92 5.23996L36.1003 7.06432L36.1101 7.06866L36.92 5.23996ZM44.696 11.72L43.0145 12.8029L43.023 12.816L44.696 11.72ZM44.696 31.52L46.3689 32.616V32.616L44.696 31.52ZM36.92 38L37.7396 39.8243L37.7515 39.8189L36.92 38ZM9.91996 40.232L8.5221 38.8016L9.91996 42.232V40.232ZM16.256 34.04H18.256L14.8581 32.6096L16.256 34.04ZM16.256 53.408V55.408L18.256 53.408H16.256ZM16.256 35.552L14.8182 36.9423L18.256 35.552H16.256ZM9.91996 29V27L8.48225 30.3903L9.91996 29ZM30.8 27.056L29.4864 25.5478L29.462 25.5694L30.8 27.056ZM30.8 16.184L29.462 17.6705L29.4864 17.6921L30.8 16.184ZM9.91996 14.24L8.48225 12.8496L9.91996 16.24V14.24ZM16.256 7.68796H18.256L14.8182 6.29764L16.256 7.68796ZM1.99996 53.408H3.99996V3.00796H1.99996H-3.91006e-05V53.408H1.99996ZM1.99996 3.00796V5.00796H25.04V3.00796V1.00796H1.99996V3.00796ZM25.04 3.00796V5.00796C29.4388 5.00796 33.1055 5.7188 36.1003 7.06429L36.92 5.23996L37.7396 3.41562C34.1104 1.78511 29.8571 1.00796 25.04 1.00796V3.00796ZM36.92 5.23996L36.1101 7.06866C39.1468 8.41349 41.4212 10.3291 43.0145 12.8029L44.696 11.72L46.3774 10.637C44.3227 7.44686 41.4131 5.04242 37.7298 3.41126L36.92 5.23996ZM44.696 11.72L43.023 12.816C44.6023 15.2265 45.432 18.144 45.432 21.656H47.432H49.432C49.432 17.4879 48.4376 13.7814 46.3689 10.6239L44.696 11.72ZM47.432 21.656H45.432C45.432 25.1144 44.605 28.0094 43.023 30.4239L44.696 31.52L46.3689 32.616C48.435 29.4625 49.432 25.7815 49.432 21.656H47.432ZM44.696 31.52L43.023 30.4239C41.428 32.8584 39.1444 34.784 36.0884 36.181L36.92 38L37.7515 39.8189C41.4155 38.1439 44.3159 35.7495 46.3689 32.616L44.696 31.52ZM36.92 38L36.1003 36.1756C33.1055 37.5211 29.4388 38.232 25.04 38.232V40.232V42.232C29.8571 42.232 34.1104 41.4548 37.7396 39.8243L36.92 38ZM25.04 40.232V38.232H9.91996V40.232V42.232H25.04V40.232ZM9.91996 40.232L11.3178 41.6623L17.6538 35.4703L16.256 34.04L14.8581 32.6096L8.5221 38.8016L9.91996 40.232ZM16.256 34.04H14.256V53.408H16.256H18.256V34.04H16.256ZM16.256 53.408V51.408H1.99996V53.408V55.408H16.256V53.408ZM16.256 35.552L17.6937 34.1616L11.3577 27.6096L9.91996 29L8.48225 30.3903L14.8182 36.9423L16.256 35.552ZM9.91996 29V31H24.176V29V27H9.91996V29ZM24.176 29V31C27.3907 31 30.1771 30.3073 32.1379 28.5425L30.8 27.056L29.462 25.5694C28.5428 26.3967 26.9132 27 24.176 27V29ZM30.8 27.056L32.1135 28.5641C34.1123 26.8232 35.032 24.4312 35.032 21.656H33.032H31.032C31.032 23.4887 30.4636 24.6967 29.4864 25.5478L30.8 27.056ZM33.032 21.656H35.032C35.032 18.8474 34.1218 16.4249 32.1135 14.6758L30.8 16.184L29.4864 17.6921C30.4542 18.535 31.032 19.7605 31.032 21.656H33.032ZM30.8 16.184L32.1379 14.6974C30.1771 12.9327 27.3907 12.24 24.176 12.24V14.24V16.24C26.9132 16.24 28.5428 16.8433 29.462 17.6705L30.8 16.184ZM24.176 14.24V12.24H9.91996V14.24V16.24H24.176V14.24ZM9.91996 14.24L11.3577 15.6303L17.6937 9.07827L16.256 7.68796L14.8182 6.29764L8.48225 12.8496L9.91996 14.24ZM16.256 7.68796H14.256V35.552H16.256H18.256V7.68796H16.256ZM55.1028 53.408H53.1028L55.1028 55.408V53.408ZM55.1028 3.00796V1.00796L53.1028 3.00796H55.1028ZM90.0228 5.23996L89.2031 7.06432L89.2129 7.06866L90.0228 5.23996ZM97.7988 11.72L96.1173 12.8029L96.1259 12.816L97.7988 11.72ZM97.7988 31.52L99.4629 32.6294L99.4717 32.616L97.7988 31.52ZM90.0228 37.856L90.8202 39.6901L90.8326 39.6847L90.0228 37.856ZM63.0228 40.016L61.6505 38.561L63.0228 42.016V40.016ZM69.3588 34.04H71.3588L67.9865 32.585L69.3588 34.04ZM69.3588 53.408V55.408L71.3588 53.408H69.3588ZM86.2788 53.408L84.6267 54.5352L86.2788 55.408V53.408ZM73.7508 35.048V33.048L72.0987 36.1752L73.7508 35.048ZM88.9428 35.048L90.5918 33.9163L88.9428 33.048V35.048ZM101.543 53.408V55.408L103.192 52.2763L101.543 53.408ZM69.3588 35.552L67.9211 36.9423L71.3588 35.552H69.3588ZM63.0228 29V27L61.5851 30.3903L63.0228 29ZM83.9028 27.056L82.5892 25.5478L82.5648 25.5694L83.9028 27.056ZM83.9028 16.184L82.5648 17.6705L82.5892 17.6921L83.9028 16.184ZM63.0228 14.24L61.5851 12.8496L63.0228 16.24V14.24ZM69.3588 7.68796H71.3588L67.9211 6.29764L69.3588 7.68796ZM55.1028 53.408H57.1028V3.00796H55.1028H53.1028V53.408H55.1028ZM55.1028 3.00796V5.00796H78.1428V3.00796V1.00796H55.1028V3.00796ZM78.1428 3.00796V5.00796C82.5416 5.00796 86.2083 5.7188 89.2031 7.06429L90.0228 5.23996L90.8424 3.41562C87.2132 1.78511 82.9599 1.00796 78.1428 1.00796V3.00796ZM90.0228 5.23996L89.2129 7.06866C92.2496 8.41349 94.524 10.3291 96.1173 12.8029L97.7988 11.72L99.4802 10.637C97.4255 7.44686 94.5159 5.04242 90.8326 3.41126L90.0228 5.23996ZM97.7988 11.72L96.1259 12.816C97.7051 15.2265 98.5348 18.144 98.5348 21.656H100.535H102.535C102.535 17.4879 101.54 13.7814 99.4717 10.6239L97.7988 11.72ZM100.535 21.656H98.5348C98.5348 25.1144 97.7078 28.0094 96.1259 30.4239L97.7988 31.52L99.4717 32.616C101.538 29.4625 102.535 25.7815 102.535 21.656H100.535ZM97.7988 31.52L96.1347 30.4106C94.5455 32.7943 92.2678 34.6744 89.2129 36.0273L90.0228 37.856L90.8326 39.6847C94.4978 38.0615 97.404 35.7176 99.4629 32.6294L97.7988 31.52ZM90.0228 37.856L89.2253 36.0218C86.2241 37.3267 82.5492 38.016 78.1428 38.016V40.016V42.016C82.9523 42.016 87.1975 41.2652 90.8202 39.6901L90.0228 37.856ZM78.1428 40.016V38.016H63.0228V40.016V42.016H78.1428V40.016ZM63.0228 40.016L64.3951 41.4709L70.731 35.4949L69.3588 34.04L67.9865 32.585L61.6505 38.561L63.0228 40.016ZM69.3588 34.04H67.3588V53.408H69.3588H71.3588V34.04H69.3588ZM69.3588 53.408V51.408H55.1028V53.408V55.408H69.3588V53.408ZM86.2788 53.408L87.9308 52.2807L75.4028 33.9207L73.7508 35.048L72.0987 36.1752L84.6267 54.5352L86.2788 53.408ZM73.7508 35.048V37.048H88.9428V35.048V33.048H73.7508V35.048ZM88.9428 35.048L87.2937 36.1796L99.8938 54.5396L101.543 53.408L103.192 52.2763L90.5918 33.9163L88.9428 35.048ZM101.543 53.408V51.408H86.2788V53.408V55.408H101.543V53.408ZM69.3588 35.552L70.7965 34.1616L64.4605 27.6096L63.0228 29L61.5851 30.3903L67.9211 36.9423L69.3588 35.552ZM63.0228 29V31H77.2788V29V27H63.0228V29ZM77.2788 29V31C80.4935 31 83.2799 30.3073 85.2407 28.5425L83.9028 27.056L82.5648 25.5694C81.6456 26.3967 80.016 27 77.2788 27V29ZM83.9028 27.056L85.2163 28.5641C87.2151 26.8232 88.1348 24.4312 88.1348 21.656H86.1348H84.1348C84.1348 23.4887 83.5664 24.6967 82.5892 25.5478L83.9028 27.056ZM86.1348 21.656H88.1348C88.1348 18.8474 87.2246 16.4249 85.2163 14.6758L83.9028 16.184L82.5892 17.6921C83.557 18.535 84.1348 19.7605 84.1348 21.656H86.1348ZM83.9028 16.184L85.2407 14.6974C83.2799 12.9327 80.4935 12.24 77.2788 12.24V14.24V16.24C80.016 16.24 81.6456 16.8433 82.5648 17.6705L83.9028 16.184ZM77.2788 14.24V12.24H63.0228V14.24V16.24H77.2788V14.24ZM63.0228 14.24L64.4605 15.6303L70.7965 9.07827L69.3588 7.68796L67.9211 6.29764L61.5851 12.8496L63.0228 14.24ZM69.3588 7.68796H67.3588V35.552H69.3588H71.3588V7.68796H69.3588ZM123.376 52.472L122.665 54.3414L123.376 52.472ZM114.448 47L113.061 48.4416L113.09 48.4685L114.448 47ZM108.616 38.648L106.785 39.4525L108.616 38.648ZM108.616 17.768L106.785 16.9634L108.616 17.768ZM114.448 9.48796L115.819 10.9435L115.82 10.9427L114.448 9.48796ZM123.376 3.94396L122.665 2.07456V2.07456L123.376 3.94396ZM145.696 3.94396L144.976 5.80998L144.985 5.81335L145.696 3.94396ZM154.552 9.48796L153.165 10.9296L153.18 10.9435L154.552 9.48796ZM160.384 17.768L158.553 18.5725L158.563 18.5956L160.384 17.768ZM160.384 38.72L158.558 37.9026L158.553 37.9154L160.384 38.72ZM154.552 47L155.923 48.4555H155.923L154.552 47ZM145.696 52.472L144.985 50.6025L144.976 50.606L145.696 52.472ZM139.864 41.6L139.121 39.743L139.102 39.7506L139.864 41.6ZM144.184 38.72L142.743 37.3327L142.742 37.3337L144.184 38.72ZM147.064 34.112L145.21 33.3605L145.193 33.4042L147.064 34.112ZM147.064 22.304L145.193 23.0117L145.217 23.0732L147.064 22.304ZM144.184 17.768L142.716 19.1268L142.769 19.1822L144.184 17.768ZM139.864 14.816L139.102 16.6653L139.121 16.6729L139.864 14.816ZM129.136 14.816L128.393 12.959L128.374 12.9666L129.136 14.816ZM124.816 17.768L123.375 16.3807L123.374 16.3817L124.816 17.768ZM121.936 22.304L120.082 21.5525L120.072 21.5791L121.936 22.304ZM121.936 34.112L120.065 34.8197L120.082 34.8634L121.936 34.112ZM124.816 38.72L123.348 40.0788L123.401 40.1342L124.816 38.72ZM129.136 41.6L128.374 43.4493L128.393 43.4569L129.136 41.6ZM134.536 54.416V52.416C130.721 52.416 127.245 51.8035 124.087 50.6026L123.376 52.472L122.665 54.3414C126.323 55.7324 130.286 56.416 134.536 56.416V54.416ZM123.376 52.472L124.087 50.6026C120.905 49.3927 118.152 47.7006 115.805 45.5314L114.448 47L113.09 48.4685C115.832 51.0033 119.03 52.9592 122.665 54.3414L123.376 52.472ZM114.448 47L115.834 45.5583C113.526 43.3394 111.733 40.7718 110.447 37.8434L108.616 38.648L106.785 39.4525C108.282 42.8601 110.377 45.8605 113.061 48.4416L114.448 47ZM108.616 38.648L110.447 37.8434C109.176 34.9524 108.528 31.7497 108.528 28.208H106.528H104.528C104.528 32.2502 105.271 36.0075 106.785 39.4525L108.616 38.648ZM106.528 28.208H108.528C108.528 24.6662 109.176 21.4635 110.447 18.5725L108.616 17.768L106.785 16.9634C105.271 20.4084 104.528 24.1657 104.528 28.208H106.528ZM108.616 17.768L110.447 18.5725C111.732 15.6479 113.52 13.1098 115.819 10.9435L114.448 9.48796L113.076 8.03238C110.383 10.5701 108.284 13.552 106.785 16.9634L108.616 17.768ZM114.448 9.48796L115.82 10.9427C118.165 8.73071 120.914 7.01999 124.087 5.81335L123.376 3.94396L122.665 2.07456C119.022 3.45992 115.818 5.4452 113.075 8.03317L114.448 9.48796ZM123.376 3.94396L124.087 5.81335C127.245 4.61237 130.721 3.99996 134.536 3.99996V1.99996V-4.43459e-05C130.286 -4.43459e-05 126.323 0.68354 122.665 2.07456L123.376 3.94396ZM134.536 1.99996V3.99996C138.402 3.99996 141.874 4.6135 144.976 5.80996L145.696 3.94396L146.415 2.07795C142.797 0.68241 138.829 -4.43459e-05 134.536 -4.43459e-05V1.99996ZM145.696 3.94396L144.985 5.81335C148.155 7.01883 150.874 8.72599 153.165 10.9296L154.552 9.48796L155.938 8.04629C153.238 5.44992 150.053 3.46109 146.407 2.07456L145.696 3.94396ZM154.552 9.48796L153.18 10.9435C155.479 13.1098 157.268 15.6479 158.553 18.5725L160.384 17.768L162.215 16.9634C160.716 13.552 158.616 10.5701 155.923 8.03238L154.552 9.48796ZM160.384 17.768L158.563 18.5956C159.875 21.4811 160.544 24.6756 160.544 28.208H162.544H164.544C164.544 24.1564 163.773 20.3909 162.204 16.9404L160.384 17.768ZM162.544 28.208H160.544C160.544 31.74 159.875 34.9629 158.558 37.9026L160.384 38.72L162.209 39.5373C163.773 36.045 164.544 32.2599 164.544 28.208H162.544ZM160.384 38.72L158.553 37.9154C157.268 40.84 155.479 43.3781 153.18 45.5444L154.552 47L155.923 48.4555C158.616 45.9179 160.716 42.9359 162.215 39.5245L160.384 38.72ZM154.552 47L153.18 45.5444C150.887 47.7053 148.163 49.3939 144.985 50.6026L145.696 52.472L146.407 54.3414C150.044 52.9581 153.224 50.9986 155.923 48.4555L154.552 47ZM145.696 52.472L144.976 50.606C141.874 51.8024 138.402 52.416 134.536 52.416V54.416V56.416C138.829 56.416 142.797 55.7335 146.415 54.338L145.696 52.472ZM134.536 42.608V44.608C136.694 44.608 138.731 44.2292 140.625 43.4493L139.864 41.6L139.102 39.7506C137.732 40.3147 136.218 40.608 134.536 40.608V42.608ZM139.864 41.6L140.606 43.4569C142.538 42.6843 144.22 41.5682 145.625 40.1062L144.184 38.72L142.742 37.3337C141.748 38.3677 140.549 39.1716 139.121 39.743L139.864 41.6ZM144.184 38.72L145.624 40.1072C147.07 38.6055 148.172 36.8347 148.934 34.8197L147.064 34.112L145.193 33.4042C144.612 34.9412 143.793 36.2424 142.743 37.3327L144.184 38.72ZM147.064 34.112L148.917 34.8634C149.745 32.8202 150.144 30.5929 150.144 28.208H148.144H146.144C146.144 30.143 145.822 31.8517 145.21 33.3605L147.064 34.112ZM148.144 28.208H150.144C150.144 25.7825 149.748 23.5461 148.91 21.5347L147.064 22.304L145.217 23.0732C145.819 24.5178 146.144 26.2174 146.144 28.208H148.144ZM147.064 22.304L148.934 21.5962C148.17 19.5754 147.061 17.8171 145.598 16.3537L144.184 17.768L142.769 19.1822C143.802 20.2148 144.614 21.4805 145.193 23.0117L147.064 22.304ZM144.184 17.768L145.651 16.4091C144.245 14.89 142.555 13.7384 140.606 12.959L139.864 14.816L139.121 16.6729C140.532 17.2375 141.723 18.054 142.716 19.1268L144.184 17.768ZM139.864 14.816L140.625 12.9666C138.731 12.1867 136.694 11.808 134.536 11.808V13.808V15.808C136.218 15.808 137.732 16.1012 139.102 16.6653L139.864 14.816ZM134.536 13.808V11.808C132.377 11.808 130.323 12.1868 128.393 12.959L129.136 14.816L129.878 16.6729C131.308 16.1011 132.854 15.808 134.536 15.808V13.808ZM129.136 14.816L128.374 12.9666C126.481 13.7461 124.811 14.8893 123.375 16.3807L124.816 17.768L126.256 19.1552C127.316 18.0546 128.526 17.2299 129.897 16.6653L129.136 14.816ZM124.816 17.768L123.374 16.3817C121.98 17.8319 120.888 19.5659 120.082 21.5525L121.936 22.304L123.789 23.0554C124.424 21.49 125.252 20.2001 126.257 19.1542L124.816 17.768ZM121.936 22.304L120.072 21.5791C119.294 23.5777 118.928 25.7983 118.928 28.208H120.928H122.928C122.928 26.2017 123.233 24.4862 123.8 23.0289L121.936 22.304ZM120.928 28.208H118.928C118.928 30.5769 119.297 32.7887 120.065 34.8197L121.936 34.112L123.806 33.4042C123.231 31.8832 122.928 30.1591 122.928 28.208H120.928ZM121.936 34.112L120.082 34.8634C120.885 36.8444 121.97 38.5908 123.348 40.0788L124.816 38.72L126.283 37.3611C125.261 36.2571 124.426 34.9315 123.789 33.3605L121.936 34.112ZM124.816 38.72L123.401 40.1342C124.836 41.5689 126.498 42.6768 128.374 43.4493L129.136 41.6L129.897 39.7506C128.509 39.1791 127.291 38.367 126.23 37.3057L124.816 38.72ZM129.136 41.6L128.393 43.4569C130.323 44.2291 132.377 44.608 134.536 44.608V42.608V40.608C132.854 40.608 131.308 40.3148 129.878 39.743L129.136 41.6ZM183.978 25.112V23.112L181.978 25.112H183.978ZM207.234 25.112H209.234L207.234 23.112V25.112ZM207.234 36.128V38.128L209.234 36.128H207.234ZM183.978 36.128H181.978L183.978 38.128V36.128ZM184.986 53.408V55.408L186.986 53.408H184.986ZM170.73 53.408H168.73L170.73 55.408V53.408ZM170.73 3.00796V1.00796L168.73 3.00796H170.73ZM210.258 3.00796H212.258L210.258 1.00796V3.00796ZM210.258 14.024V16.024L212.258 14.024H210.258ZM184.986 14.024V12.024L182.986 14.024H184.986ZM183.978 25.112V27.112H207.234V25.112V23.112H183.978V25.112ZM207.234 25.112H205.234V36.128H207.234H209.234V25.112H207.234ZM207.234 36.128V34.128H183.978V36.128V38.128H207.234V36.128ZM183.978 36.128H185.978V25.112H183.978H181.978V36.128H183.978ZM184.986 53.408V51.408H170.73V53.408V55.408H184.986V53.408ZM170.73 53.408H172.73V3.00796H170.73H168.73V53.408H170.73ZM170.73 3.00796V5.00796H210.258V3.00796V1.00796H170.73V3.00796ZM210.258 3.00796H208.258V14.024H210.258H212.258V3.00796H210.258ZM210.258 14.024V12.024H184.986V14.024V16.024H210.258V14.024ZM184.986 14.024H182.986V53.408H184.986H186.986V14.024H184.986ZM217.646 53.408H215.646L217.646 55.408V53.408ZM217.646 3.00796V1.00796L215.646 3.00796H217.646ZM231.902 3.00796H233.902L231.902 1.00796V3.00796ZM231.902 53.408V55.408L233.902 53.408H231.902ZM217.646 53.408H219.646V3.00796H217.646H215.646V53.408H217.646ZM217.646 3.00796V5.00796H231.902V3.00796V1.00796H217.646V3.00796ZM231.902 3.00796H229.902V53.408H231.902H233.902V3.00796H231.902ZM231.902 53.408V51.408H217.646V53.408V55.408H231.902V53.408ZM242.764 53.408H240.764L242.764 55.408V53.408ZM242.764 3.00796V1.00796L240.764 3.00796H242.764ZM257.02 3.00796H259.02L257.02 1.00796V3.00796ZM257.02 42.104H255.02L257.02 44.104V42.104ZM281.068 42.104H283.068L281.068 40.104V42.104ZM281.068 53.408V55.408L283.068 53.408H281.068ZM242.764 53.408H244.764V3.00796H242.764H240.764V53.408H242.764ZM242.764 3.00796V5.00796H257.02V3.00796V1.00796H242.764V3.00796ZM257.02 3.00796H255.02V42.104H257.02H259.02V3.00796H257.02ZM257.02 42.104V44.104H281.068V42.104V40.104H257.02V42.104ZM281.068 42.104H279.068V53.408H281.068H283.068V42.104H281.068ZM281.068 53.408V51.408H242.764V53.408V55.408H281.068V53.408ZM300.533 22.52V20.52L298.533 22.52H300.533ZM323.933 22.52H325.933L323.933 20.52V22.52ZM323.933 33.176V35.176L325.933 33.176H323.933ZM300.533 33.176H298.533L300.533 35.176V33.176ZM301.541 42.392H299.541L301.541 44.392V42.392ZM327.893 42.392H329.893L327.893 40.392V42.392ZM327.893 53.408V55.408L329.893 53.408H327.893ZM287.429 53.408H285.429L287.429 55.408V53.408ZM287.429 3.00796V1.00796L285.429 3.00796H287.429ZM326.957 3.00796H328.957L326.957 1.00796V3.00796ZM326.957 14.024V16.024L328.957 14.024H326.957ZM301.541 14.024V12.024L299.541 14.024H301.541ZM300.533 22.52V24.52H323.933V22.52V20.52H300.533V22.52ZM323.933 22.52H321.933V33.176H323.933H325.933V22.52H323.933ZM323.933 33.176V31.176H300.533V33.176V35.176H323.933V33.176ZM300.533 33.176H302.533V22.52H300.533H298.533V33.176H300.533ZM301.541 42.392V44.392H327.893V42.392V40.392H301.541V42.392ZM327.893 42.392H325.893V53.408H327.893H329.893V42.392H327.893ZM327.893 53.408V51.408H287.429V53.408V55.408H327.893V53.408ZM287.429 53.408H289.429V3.00796H287.429H285.429V53.408H287.429ZM287.429 3.00796V5.00796H326.957V3.00796V1.00796H287.429V3.00796ZM326.957 3.00796H324.957V14.024H326.957H328.957V3.00796H326.957ZM326.957 14.024V12.024H301.541V14.024V16.024H326.957V14.024ZM301.541 14.024H299.541V42.392H301.541H303.541V14.024H301.541Z" fill="black" mask="url(#path-1-outside-1_37_321)"/>
</svg>
