<svg width="303" height="57" viewBox="0 0 303 57" fill="none" xmlns="http://www.w3.org/2000/svg">
<mask id="path-1-outside-1_36_85" maskUnits="userSpaceOnUse" x="-0.249512" y="-0.592041" width="303" height="58" fill="black">
<rect fill="white" x="-0.249512" y="-0.592041" width="303" height="58"/>
<path d="M18.2465 53.408L1.90249 3.00796H16.5905L30.3425 46.64H22.9265L37.3985 3.00796H50.5025L64.1825 46.64H57.0545L71.2385 3.00796H84.8465L68.5025 53.408H53.2385L41.5745 16.328H45.6785L33.5105 53.408H18.2465ZM115.458 54.416C111.426 54.416 107.706 53.768 104.298 52.472C100.89 51.176 97.9137 49.352 95.3697 47C92.8737 44.6 90.9297 41.816 89.5377 38.648C88.1457 35.48 87.4497 32 87.4497 28.208C87.4497 24.416 88.1457 20.936 89.5377 17.768C90.9297 14.6 92.8737 11.84 95.3697 9.48796C97.9137 7.08796 100.89 5.23996 104.298 3.94396C107.706 2.64796 111.426 1.99996 115.458 1.99996C119.538 1.99996 123.258 2.64796 126.618 3.94396C130.026 5.23996 132.978 7.08796 135.474 9.48796C137.97 11.84 139.914 14.6 141.306 17.768C142.746 20.936 143.466 24.416 143.466 28.208C143.466 32 142.746 35.504 141.306 38.72C139.914 41.888 137.97 44.648 135.474 47C132.978 49.352 130.026 51.176 126.618 52.472C123.258 53.768 119.538 54.416 115.458 54.416ZM115.458 42.608C117.378 42.608 119.154 42.272 120.786 41.6C122.466 40.928 123.906 39.968 125.106 38.72C126.354 37.424 127.314 35.888 127.986 34.112C128.706 32.336 129.066 30.368 129.066 28.208C129.066 26 128.706 24.032 127.986 22.304C127.314 20.528 126.354 19.016 125.106 17.768C123.906 16.472 122.466 15.488 120.786 14.816C119.154 14.144 117.378 13.808 115.458 13.808C113.538 13.808 111.738 14.144 110.058 14.816C108.426 15.488 106.986 16.472 105.738 17.768C104.538 19.016 103.578 20.528 102.858 22.304C102.186 24.032 101.85 26 101.85 28.208C101.85 30.368 102.186 32.336 102.858 34.112C103.578 35.888 104.538 37.424 105.738 38.72C106.986 39.968 108.426 40.928 110.058 41.6C111.738 42.272 113.538 42.608 115.458 42.608ZM151.652 53.408V3.00796H174.692C179.3 3.00796 183.26 3.75196 186.572 5.23996C189.932 6.72796 192.524 8.88796 194.348 11.72C196.172 14.504 197.084 17.816 197.084 21.656C197.084 25.448 196.172 28.736 194.348 31.52C192.524 34.256 189.932 36.368 186.572 37.856C183.26 39.296 179.3 40.016 174.692 40.016H159.572L165.908 34.04V53.408H151.652ZM182.828 53.408L170.3 35.048H185.492L198.092 53.408H182.828ZM165.908 35.552L159.572 29H173.828C176.804 29 179.012 28.352 180.452 27.056C181.94 25.76 182.684 23.96 182.684 21.656C182.684 19.304 181.94 17.48 180.452 16.184C179.012 14.888 176.804 14.24 173.828 14.24H159.572L165.908 7.68796V35.552ZM218.413 42.248L217.621 26.264L239.293 3.00796H254.989L233.389 26.408L225.469 34.688L218.413 42.248ZM205.669 53.408V3.00796H219.781V53.408H205.669ZM239.509 53.408L223.093 32.6L232.381 22.664L256.069 53.408H239.509ZM277.907 54.416C273.779 54.416 269.795 53.912 265.955 52.904C262.163 51.848 259.067 50.504 256.667 48.872L261.347 38.36C263.603 39.8 266.195 41 269.123 41.96C272.099 42.872 275.051 43.328 277.979 43.328C279.947 43.328 281.531 43.16 282.731 42.824C283.931 42.44 284.795 41.96 285.323 41.384C285.899 40.76 286.187 40.04 286.187 39.224C286.187 38.072 285.659 37.16 284.603 36.488C283.547 35.816 282.179 35.264 280.499 34.832C278.819 34.4 276.947 33.968 274.883 33.536C272.867 33.104 270.827 32.552 268.763 31.88C266.747 31.208 264.899 30.344 263.219 29.288C261.539 28.184 260.171 26.768 259.115 25.04C258.059 23.264 257.531 21.032 257.531 18.344C257.531 15.32 258.347 12.584 259.979 10.136C261.659 7.68796 264.155 5.71996 267.467 4.23196C270.779 2.74396 274.907 1.99996 279.851 1.99996C283.163 1.99996 286.403 2.38396 289.571 3.15196C292.787 3.87196 295.643 4.95196 298.139 6.39195L293.747 16.976C291.347 15.68 288.971 14.72 286.619 14.096C284.267 13.424 281.987 13.088 279.779 13.088C277.811 13.088 276.227 13.304 275.027 13.736C273.827 14.12 272.963 14.648 272.435 15.32C271.907 15.992 271.643 16.76 271.643 17.624C271.643 18.728 272.147 19.616 273.155 20.288C274.211 20.912 275.579 21.44 277.259 21.872C278.987 22.256 280.859 22.664 282.875 23.096C284.939 23.528 286.979 24.08 288.995 24.752C291.059 25.376 292.931 26.24 294.611 27.344C296.291 28.4 297.635 29.816 298.643 31.592C299.699 33.32 300.227 35.504 300.227 38.144C300.227 41.072 299.387 43.784 297.707 46.28C296.075 48.728 293.603 50.696 290.291 52.184C287.027 53.672 282.899 54.416 277.907 54.416Z"/>
</mask>
<path d="M18.2465 53.408L1.90249 3.00796H16.5905L30.3425 46.64H22.9265L37.3985 3.00796H50.5025L64.1825 46.64H57.0545L71.2385 3.00796H84.8465L68.5025 53.408H53.2385L41.5745 16.328H45.6785L33.5105 53.408H18.2465ZM115.458 54.416C111.426 54.416 107.706 53.768 104.298 52.472C100.89 51.176 97.9137 49.352 95.3697 47C92.8737 44.6 90.9297 41.816 89.5377 38.648C88.1457 35.48 87.4497 32 87.4497 28.208C87.4497 24.416 88.1457 20.936 89.5377 17.768C90.9297 14.6 92.8737 11.84 95.3697 9.48796C97.9137 7.08796 100.89 5.23996 104.298 3.94396C107.706 2.64796 111.426 1.99996 115.458 1.99996C119.538 1.99996 123.258 2.64796 126.618 3.94396C130.026 5.23996 132.978 7.08796 135.474 9.48796C137.97 11.84 139.914 14.6 141.306 17.768C142.746 20.936 143.466 24.416 143.466 28.208C143.466 32 142.746 35.504 141.306 38.72C139.914 41.888 137.97 44.648 135.474 47C132.978 49.352 130.026 51.176 126.618 52.472C123.258 53.768 119.538 54.416 115.458 54.416ZM115.458 42.608C117.378 42.608 119.154 42.272 120.786 41.6C122.466 40.928 123.906 39.968 125.106 38.72C126.354 37.424 127.314 35.888 127.986 34.112C128.706 32.336 129.066 30.368 129.066 28.208C129.066 26 128.706 24.032 127.986 22.304C127.314 20.528 126.354 19.016 125.106 17.768C123.906 16.472 122.466 15.488 120.786 14.816C119.154 14.144 117.378 13.808 115.458 13.808C113.538 13.808 111.738 14.144 110.058 14.816C108.426 15.488 106.986 16.472 105.738 17.768C104.538 19.016 103.578 20.528 102.858 22.304C102.186 24.032 101.85 26 101.85 28.208C101.85 30.368 102.186 32.336 102.858 34.112C103.578 35.888 104.538 37.424 105.738 38.72C106.986 39.968 108.426 40.928 110.058 41.6C111.738 42.272 113.538 42.608 115.458 42.608ZM151.652 53.408V3.00796H174.692C179.3 3.00796 183.26 3.75196 186.572 5.23996C189.932 6.72796 192.524 8.88796 194.348 11.72C196.172 14.504 197.084 17.816 197.084 21.656C197.084 25.448 196.172 28.736 194.348 31.52C192.524 34.256 189.932 36.368 186.572 37.856C183.26 39.296 179.3 40.016 174.692 40.016H159.572L165.908 34.04V53.408H151.652ZM182.828 53.408L170.3 35.048H185.492L198.092 53.408H182.828ZM165.908 35.552L159.572 29H173.828C176.804 29 179.012 28.352 180.452 27.056C181.94 25.76 182.684 23.96 182.684 21.656C182.684 19.304 181.94 17.48 180.452 16.184C179.012 14.888 176.804 14.24 173.828 14.24H159.572L165.908 7.68796V35.552ZM218.413 42.248L217.621 26.264L239.293 3.00796H254.989L233.389 26.408L225.469 34.688L218.413 42.248ZM205.669 53.408V3.00796H219.781V53.408H205.669ZM239.509 53.408L223.093 32.6L232.381 22.664L256.069 53.408H239.509ZM277.907 54.416C273.779 54.416 269.795 53.912 265.955 52.904C262.163 51.848 259.067 50.504 256.667 48.872L261.347 38.36C263.603 39.8 266.195 41 269.123 41.96C272.099 42.872 275.051 43.328 277.979 43.328C279.947 43.328 281.531 43.16 282.731 42.824C283.931 42.44 284.795 41.96 285.323 41.384C285.899 40.76 286.187 40.04 286.187 39.224C286.187 38.072 285.659 37.16 284.603 36.488C283.547 35.816 282.179 35.264 280.499 34.832C278.819 34.4 276.947 33.968 274.883 33.536C272.867 33.104 270.827 32.552 268.763 31.88C266.747 31.208 264.899 30.344 263.219 29.288C261.539 28.184 260.171 26.768 259.115 25.04C258.059 23.264 257.531 21.032 257.531 18.344C257.531 15.32 258.347 12.584 259.979 10.136C261.659 7.68796 264.155 5.71996 267.467 4.23196C270.779 2.74396 274.907 1.99996 279.851 1.99996C283.163 1.99996 286.403 2.38396 289.571 3.15196C292.787 3.87196 295.643 4.95196 298.139 6.39195L293.747 16.976C291.347 15.68 288.971 14.72 286.619 14.096C284.267 13.424 281.987 13.088 279.779 13.088C277.811 13.088 276.227 13.304 275.027 13.736C273.827 14.12 272.963 14.648 272.435 15.32C271.907 15.992 271.643 16.76 271.643 17.624C271.643 18.728 272.147 19.616 273.155 20.288C274.211 20.912 275.579 21.44 277.259 21.872C278.987 22.256 280.859 22.664 282.875 23.096C284.939 23.528 286.979 24.08 288.995 24.752C291.059 25.376 292.931 26.24 294.611 27.344C296.291 28.4 297.635 29.816 298.643 31.592C299.699 33.32 300.227 35.504 300.227 38.144C300.227 41.072 299.387 43.784 297.707 46.28C296.075 48.728 293.603 50.696 290.291 52.184C287.027 53.672 282.899 54.416 277.907 54.416Z" fill="#FFFFF6"/>
<path d="M18.2465 53.408L16.344 54.0249L18.2465 55.408V53.408ZM1.90249 3.00796V1.00796L2.11596e-05 3.6249L1.90249 3.00796ZM16.5905 3.00796L18.498 2.40675L16.5905 1.00796V3.00796ZM30.3425 46.64V48.64L32.25 46.0387L30.3425 46.64ZM22.9265 46.64L21.0282 46.0103L22.9265 48.64V46.64ZM37.3985 3.00796V1.00796L35.5002 2.37832L37.3985 3.00796ZM50.5025 3.00796L52.4109 2.40961L50.5025 1.00796V3.00796ZM64.1825 46.64V48.64L66.0909 46.0416L64.1825 46.64ZM57.0545 46.64L55.1525 46.0216L57.0545 48.64V46.64ZM71.2385 3.00796V1.00796L69.3365 2.38964L71.2385 3.00796ZM84.8465 3.00796L86.749 3.6249L84.8465 1.00796V3.00796ZM68.5025 53.408V55.408L70.405 54.0249L68.5025 53.408ZM53.2385 53.408L51.3307 54.0081L53.2385 55.408V53.408ZM41.5745 16.328V14.328L39.6667 16.9281L41.5745 16.328ZM45.6785 16.328L47.5788 16.9515L45.6785 14.328V16.328ZM33.5105 53.408V55.408L35.4108 54.0316L33.5105 53.408ZM18.2465 53.408L20.149 52.791L3.80496 2.39101L1.90249 3.00796L2.11596e-05 3.6249L16.344 54.0249L18.2465 53.408ZM1.90249 3.00796V5.00796H16.5905V3.00796V1.00796H1.90249V3.00796ZM16.5905 3.00796L14.683 3.60916L28.435 47.2412L30.3425 46.64L32.25 46.0387L18.498 2.40675L16.5905 3.00796ZM30.3425 46.64V44.64H22.9265V46.64V48.64H30.3425V46.64ZM22.9265 46.64L24.8248 47.2696L39.2968 3.63759L37.3985 3.00796L35.5002 2.37832L21.0282 46.0103L22.9265 46.64ZM37.3985 3.00796V5.00796H50.5025V3.00796V1.00796H37.3985V3.00796ZM50.5025 3.00796L48.5941 3.6063L62.2741 47.2383L64.1825 46.64L66.0909 46.0416L52.4109 2.40961L50.5025 3.00796ZM64.1825 46.64V44.64H57.0545V46.64V48.64H64.1825V46.64ZM57.0545 46.64L58.9565 47.2583L73.1405 3.62627L71.2385 3.00796L69.3365 2.38964L55.1525 46.0216L57.0545 46.64ZM71.2385 3.00796V5.00796H84.8465V3.00796V1.00796H71.2385V3.00796ZM84.8465 3.00796L82.944 2.39101L66.6 52.791L68.5025 53.408L70.405 54.0249L86.749 3.6249L84.8465 3.00796ZM68.5025 53.408V51.408H53.2385V53.408V55.408H68.5025V53.408ZM53.2385 53.408L55.1463 52.8078L43.4823 15.7278L41.5745 16.328L39.6667 16.9281L51.3307 54.0081L53.2385 53.408ZM41.5745 16.328V18.328H45.6785V16.328V14.328H41.5745V16.328ZM45.6785 16.328L43.7782 15.7044L31.6102 52.7844L33.5105 53.408L35.4108 54.0316L47.5788 16.9515L45.6785 16.328ZM33.5105 53.408V51.408H18.2465V53.408V55.408H33.5105V53.408ZM104.298 52.472L103.587 54.3414L104.298 52.472ZM95.3697 47L93.9835 48.4416L94.012 48.4685L95.3697 47ZM89.5377 38.648L87.7067 39.4525L89.5377 38.648ZM89.5377 17.768L87.7067 16.9634L89.5377 17.768ZM95.3697 9.48796L96.7413 10.9435L96.7422 10.9427L95.3697 9.48796ZM104.298 3.94396L103.587 2.07456V2.07456L104.298 3.94396ZM126.618 3.94396L125.898 5.80998L125.907 5.81335L126.618 3.94396ZM135.474 9.48796L134.088 10.9296L134.102 10.9435L135.474 9.48796ZM141.306 17.768L139.475 18.5725L139.485 18.5956L141.306 17.768ZM141.306 38.72L139.48 37.9026L139.475 37.9154L141.306 38.72ZM135.474 47L136.845 48.4555H136.845L135.474 47ZM126.618 52.472L125.907 50.6025L125.898 50.606L126.618 52.472ZM120.786 41.6L120.043 39.743L120.024 39.7506L120.786 41.6ZM125.106 38.72L123.665 37.3327L123.664 37.3337L125.106 38.72ZM127.986 34.112L126.132 33.3605L126.115 33.4042L127.986 34.112ZM127.986 22.304L126.115 23.0117L126.14 23.0732L127.986 22.304ZM125.106 17.768L123.638 19.1268L123.692 19.1822L125.106 17.768ZM120.786 14.816L120.024 16.6653L120.043 16.6729L120.786 14.816ZM110.058 14.816L109.315 12.959L109.296 12.9666L110.058 14.816ZM105.738 17.768L104.297 16.3807L104.296 16.3817L105.738 17.768ZM102.858 22.304L101.004 21.5525L100.994 21.5791L102.858 22.304ZM102.858 34.112L100.987 34.8197L101.004 34.8634L102.858 34.112ZM105.738 38.72L104.27 40.0788L104.324 40.1342L105.738 38.72ZM110.058 41.6L109.296 43.4493L109.315 43.4569L110.058 41.6ZM115.458 54.416V52.416C111.643 52.416 108.167 51.8035 105.009 50.6026L104.298 52.472L103.587 54.3414C107.245 55.7324 111.208 56.416 115.458 56.416V54.416ZM104.298 52.472L105.009 50.6026C101.827 49.3927 99.0738 47.7006 96.7274 45.5314L95.3697 47L94.012 48.4685C96.7537 51.0033 99.9523 52.9592 103.587 54.3414L104.298 52.472ZM95.3697 47L96.756 45.5583C94.4483 43.3394 92.6555 40.7718 91.3688 37.8434L89.5377 38.648L87.7067 39.4525C89.204 42.8601 91.2992 45.8605 93.9835 48.4416L95.3697 47ZM89.5377 38.648L91.3688 37.8434C90.0985 34.9524 89.4497 31.7497 89.4497 28.208H87.4497H85.4497C85.4497 32.2502 86.193 36.0075 87.7067 39.4525L89.5377 38.648ZM87.4497 28.208H89.4497C89.4497 24.6662 90.0985 21.4635 91.3688 18.5725L89.5377 17.768L87.7067 16.9634C86.193 20.4084 85.4497 24.1657 85.4497 28.208H87.4497ZM89.5377 17.768L91.3688 18.5725C92.6538 15.6479 94.4424 13.1098 96.7413 10.9435L95.3697 9.48796L93.9981 8.03238C91.3051 10.5701 89.2056 13.552 87.7067 16.9634L89.5377 17.768ZM95.3697 9.48796L96.7422 10.9427C99.0869 8.73071 101.836 7.01999 105.009 5.81335L104.298 3.94396L103.587 2.07456C99.9439 3.45992 96.7405 5.4452 93.9973 8.03317L95.3697 9.48796ZM104.298 3.94396L105.009 5.81335C108.167 4.61237 111.643 3.99996 115.458 3.99996V1.99996V-4.43459e-05C111.208 -4.43459e-05 107.245 0.68354 103.587 2.07456L104.298 3.94396ZM115.458 1.99996V3.99996C119.324 3.99996 122.796 4.6135 125.898 5.80996L126.618 3.94396L127.337 2.07795C123.719 0.68241 119.751 -4.43459e-05 115.458 -4.43459e-05V1.99996ZM126.618 3.94396L125.907 5.81335C129.077 7.01883 131.796 8.72599 134.088 10.9296L135.474 9.48796L136.86 8.04629C134.16 5.44992 130.975 3.46109 127.329 2.07456L126.618 3.94396ZM135.474 9.48796L134.102 10.9435C136.401 13.1098 138.19 15.6479 139.475 18.5725L141.306 17.768L143.137 16.9634C141.638 13.552 139.538 10.5701 136.845 8.03238L135.474 9.48796ZM141.306 17.768L139.485 18.5956C140.797 21.4811 141.466 24.6756 141.466 28.208H143.466H145.466C145.466 24.1564 144.695 20.3909 143.126 16.9404L141.306 17.768ZM143.466 28.208H141.466C141.466 31.74 140.797 34.9629 139.48 37.9026L141.306 38.72L143.131 39.5373C144.695 36.045 145.466 32.2599 145.466 28.208H143.466ZM141.306 38.72L139.475 37.9154C138.19 40.84 136.401 43.3781 134.102 45.5444L135.474 47L136.845 48.4555C139.538 45.9179 141.638 42.9359 143.137 39.5245L141.306 38.72ZM135.474 47L134.102 45.5444C131.809 47.7053 129.085 49.3939 125.907 50.6026L126.618 52.472L127.329 54.3414C130.966 52.9581 134.147 50.9986 136.845 48.4555L135.474 47ZM126.618 52.472L125.898 50.606C122.796 51.8024 119.324 52.416 115.458 52.416V54.416V56.416C119.751 56.416 123.719 55.7335 127.337 54.338L126.618 52.472ZM115.458 42.608V44.608C117.616 44.608 119.653 44.2292 121.547 43.4493L120.786 41.6L120.024 39.7506C118.654 40.3147 117.14 40.608 115.458 40.608V42.608ZM120.786 41.6L121.529 43.4569C123.46 42.6843 125.142 41.5682 126.547 40.1062L125.106 38.72L123.664 37.3337C122.67 38.3677 121.471 39.1716 120.043 39.743L120.786 41.6ZM125.106 38.72L126.546 40.1072C127.993 38.6055 129.094 36.8347 129.856 34.8197L127.986 34.112L126.115 33.4042C125.534 34.9412 124.715 36.2424 123.665 37.3327L125.106 38.72ZM127.986 34.112L129.839 34.8634C130.668 32.8202 131.066 30.5929 131.066 28.208H129.066H127.066C127.066 30.143 126.744 31.8517 126.132 33.3605L127.986 34.112ZM129.066 28.208H131.066C131.066 25.7825 130.67 23.5461 129.832 21.5347L127.986 22.304L126.14 23.0732C126.742 24.5178 127.066 26.2174 127.066 28.208H129.066ZM127.986 22.304L129.856 21.5962C129.092 19.5754 127.983 17.8171 126.52 16.3537L125.106 17.768L123.692 19.1822C124.724 20.2148 125.536 21.4805 126.115 23.0117L127.986 22.304ZM125.106 17.768L126.573 16.4091C125.167 14.89 123.477 13.7384 121.529 12.959L120.786 14.816L120.043 16.6729C121.454 17.2375 122.645 18.054 123.638 19.1268L125.106 17.768ZM120.786 14.816L121.547 12.9666C119.653 12.1867 117.616 11.808 115.458 11.808V13.808V15.808C117.14 15.808 118.654 16.1012 120.024 16.6653L120.786 14.816ZM115.458 13.808V11.808C113.299 11.808 111.245 12.1868 109.315 12.959L110.058 14.816L110.801 16.6729C112.23 16.1011 113.776 15.808 115.458 15.808V13.808ZM110.058 14.816L109.296 12.9666C107.403 13.7461 105.733 14.8893 104.297 16.3807L105.738 17.768L107.178 19.1552C108.238 18.0546 109.448 17.2299 110.819 16.6653L110.058 14.816ZM105.738 17.768L104.296 16.3817C102.902 17.8319 101.81 19.5659 101.004 21.5525L102.858 22.304L104.711 23.0554C105.346 21.49 106.174 20.2001 107.179 19.1542L105.738 17.768ZM102.858 22.304L100.994 21.5791C100.216 23.5777 99.8497 25.7983 99.8497 28.208H101.85H103.85C103.85 26.2017 104.155 24.4862 104.722 23.0289L102.858 22.304ZM101.85 28.208H99.8497C99.8497 30.5769 100.219 32.7887 100.987 34.8197L102.858 34.112L104.728 33.4042C104.153 31.8832 103.85 30.1591 103.85 28.208H101.85ZM102.858 34.112L101.004 34.8634C101.807 36.8444 102.892 38.5908 104.27 40.0788L105.738 38.72L107.205 37.3611C106.183 36.2571 105.348 34.9315 104.711 33.3605L102.858 34.112ZM105.738 38.72L104.324 40.1342C105.758 41.5689 107.42 42.6768 109.296 43.4493L110.058 41.6L110.819 39.7506C109.431 39.1791 108.213 38.367 107.152 37.3057L105.738 38.72ZM110.058 41.6L109.315 43.4569C111.245 44.2291 113.299 44.608 115.458 44.608V42.608V40.608C113.776 40.608 112.23 40.3148 110.801 39.743L110.058 41.6ZM151.652 53.408H149.652L151.652 55.408V53.408ZM151.652 3.00796V1.00796L149.652 3.00796H151.652ZM186.572 5.23996L185.753 7.06432L185.763 7.06866L186.572 5.23996ZM194.348 11.72L192.667 12.8029L192.675 12.816L194.348 11.72ZM194.348 31.52L196.012 32.6294L196.021 32.616L194.348 31.52ZM186.572 37.856L187.37 39.6901L187.382 39.6847L186.572 37.856ZM159.572 40.016L158.2 38.561L159.572 42.016V40.016ZM165.908 34.04H167.908L164.536 32.585L165.908 34.04ZM165.908 53.408V55.408L167.908 53.408H165.908ZM182.828 53.408L181.176 54.5352L182.828 55.408V53.408ZM170.3 35.048V33.048L168.648 36.1752L170.3 35.048ZM185.492 35.048L187.141 33.9163L185.492 33.048V35.048ZM198.092 53.408V55.408L199.741 52.2763L198.092 53.408ZM165.908 35.552L164.471 36.9423L167.908 35.552H165.908ZM159.572 29V27L158.135 30.3903L159.572 29ZM180.452 27.056L179.139 25.5478L179.114 25.5694L180.452 27.056ZM180.452 16.184L179.114 17.6705L179.139 17.6921L180.452 16.184ZM159.572 14.24L158.135 12.8496L159.572 16.24V14.24ZM165.908 7.68796H167.908L164.471 6.29764L165.908 7.68796ZM151.652 53.408H153.652V3.00796H151.652H149.652V53.408H151.652ZM151.652 3.00796V5.00796H174.692V3.00796V1.00796H151.652V3.00796ZM174.692 3.00796V5.00796C179.091 5.00796 182.758 5.7188 185.753 7.06429L186.572 5.23996L187.392 3.41562C183.763 1.78511 179.51 1.00796 174.692 1.00796V3.00796ZM186.572 5.23996L185.763 7.06866C188.799 8.41349 191.074 10.3291 192.667 12.8029L194.348 11.72L196.03 10.637C193.975 7.44686 191.065 5.04242 187.382 3.41126L186.572 5.23996ZM194.348 11.72L192.675 12.816C194.255 15.2265 195.084 18.144 195.084 21.656H197.084H199.084C199.084 17.4879 198.09 13.7814 196.021 10.6239L194.348 11.72ZM197.084 21.656H195.084C195.084 25.1144 194.257 28.0094 192.675 30.4239L194.348 31.52L196.021 32.616C198.087 29.4625 199.084 25.7815 199.084 21.656H197.084ZM194.348 31.52L192.684 30.4106C191.095 32.7943 188.817 34.6744 185.763 36.0273L186.572 37.856L187.382 39.6847C191.047 38.0615 193.954 35.7176 196.012 32.6294L194.348 31.52ZM186.572 37.856L185.775 36.0218C182.774 37.3267 179.099 38.016 174.692 38.016V40.016V42.016C179.502 42.016 183.747 41.2652 187.37 39.6901L186.572 37.856ZM174.692 40.016V38.016H159.572V40.016V42.016H174.692V40.016ZM159.572 40.016L160.945 41.4709L167.281 35.4949L165.908 34.04L164.536 32.585L158.2 38.561L159.572 40.016ZM165.908 34.04H163.908V53.408H165.908H167.908V34.04H165.908ZM165.908 53.408V51.408H151.652V53.408V55.408H165.908V53.408ZM182.828 53.408L184.48 52.2807L171.952 33.9207L170.3 35.048L168.648 36.1752L181.176 54.5352L182.828 53.408ZM170.3 35.048V37.048H185.492V35.048V33.048H170.3V35.048ZM185.492 35.048L183.843 36.1796L196.443 54.5396L198.092 53.408L199.741 52.2763L187.141 33.9163L185.492 35.048ZM198.092 53.408V51.408H182.828V53.408V55.408H198.092V53.408ZM165.908 35.552L167.346 34.1616L161.01 27.6096L159.572 29L158.135 30.3903L164.471 36.9423L165.908 35.552ZM159.572 29V31H173.828V29V27H159.572V29ZM173.828 29V31C177.043 31 179.829 30.3073 181.79 28.5425L180.452 27.056L179.114 25.5694C178.195 26.3967 176.566 27 173.828 27V29ZM180.452 27.056L181.766 28.5641C183.765 26.8232 184.684 24.4312 184.684 21.656H182.684H180.684C180.684 23.4887 180.116 24.6967 179.139 25.5478L180.452 27.056ZM182.684 21.656H184.684C184.684 18.8474 183.774 16.4249 181.766 14.6758L180.452 16.184L179.139 17.6921C180.107 18.535 180.684 19.7605 180.684 21.656H182.684ZM180.452 16.184L181.79 14.6974C179.829 12.9327 177.043 12.24 173.828 12.24V14.24V16.24C176.566 16.24 178.195 16.8433 179.114 17.6705L180.452 16.184ZM173.828 14.24V12.24H159.572V14.24V16.24H173.828V14.24ZM159.572 14.24L161.01 15.6303L167.346 9.07827L165.908 7.68796L164.471 6.29764L158.135 12.8496L159.572 14.24ZM165.908 7.68796H163.908V35.552H165.908H167.908V7.68796H165.908ZM218.413 42.248L216.416 42.3469L219.875 43.6126L218.413 42.248ZM217.621 26.264L216.158 24.9005L215.624 26.3629L217.621 26.264ZM239.293 3.00796V1.00796L237.83 1.64445L239.293 3.00796ZM254.989 3.00796L256.459 4.36452L254.989 1.00796V3.00796ZM233.389 26.408L234.835 27.7904L234.859 27.7645L233.389 26.408ZM225.469 34.688L224.024 33.3055L224.007 33.3233L225.469 34.688ZM205.669 53.408H203.669L205.669 55.408V53.408ZM205.669 3.00796V1.00796L203.669 3.00796H205.669ZM219.781 3.00796H221.781L219.781 1.00796V3.00796ZM219.781 53.408V55.408L221.781 53.408H219.781ZM239.509 53.408L237.939 54.6467L239.509 55.408V53.408ZM223.093 32.6L221.632 31.2342L221.523 33.8387L223.093 32.6ZM232.381 22.664L233.966 21.4433L230.92 21.2982L232.381 22.664ZM256.069 53.408V55.408L257.654 52.1873L256.069 53.408ZM218.413 42.248L220.411 42.149L219.619 26.165L217.621 26.264L215.624 26.3629L216.416 42.3469L218.413 42.248ZM217.621 26.264L219.084 27.6275L240.756 4.37146L239.293 3.00796L237.83 1.64445L216.158 24.9005L217.621 26.264ZM239.293 3.00796V5.00796H254.989V3.00796V1.00796H239.293V3.00796ZM254.989 3.00796L253.52 1.6514L231.92 25.0514L233.389 26.408L234.859 27.7645L256.459 4.36452L254.989 3.00796ZM233.389 26.408L231.944 25.0255L224.024 33.3055L225.469 34.688L226.915 36.0704L234.835 27.7904L233.389 26.408ZM225.469 34.688L224.007 33.3233L216.951 40.8833L218.413 42.248L219.875 43.6126L226.931 36.0526L225.469 34.688ZM205.669 53.408H207.669V3.00796H205.669H203.669V53.408H205.669ZM205.669 3.00796V5.00796H219.781V3.00796V1.00796H205.669V3.00796ZM219.781 3.00796H217.781V53.408H219.781H221.781V3.00796H219.781ZM219.781 53.408V51.408H205.669V53.408V55.408H219.781V53.408ZM239.509 53.408L241.079 52.1692L224.663 31.3612L223.093 32.6L221.523 33.8387L237.939 54.6467L239.509 53.408ZM223.093 32.6L224.554 33.9657L233.842 24.0297L232.381 22.664L230.92 21.2982L221.632 31.2342L223.093 32.6ZM232.381 22.664L230.797 23.8846L254.485 54.6286L256.069 53.408L257.654 52.1873L233.966 21.4433L232.381 22.664ZM256.069 53.408V51.408H239.509V53.408V55.408H256.069V53.408ZM265.955 52.904L265.419 54.8306L265.447 54.8384L265.955 52.904ZM256.667 48.872L254.84 48.0585L255.543 50.5258L256.667 48.872ZM261.347 38.36L262.423 36.6741L259.52 37.5465L261.347 38.36ZM269.123 41.96L268.5 43.8604L268.537 43.8722L269.123 41.96ZM282.731 42.824L283.27 44.7499L283.341 44.7288L282.731 42.824ZM285.323 41.384L283.854 40.0274L283.849 40.0325L285.323 41.384ZM284.603 36.488L283.529 38.1753L284.603 36.488ZM280.499 34.832L280.997 32.895L280.499 34.832ZM274.883 33.536L274.464 35.4916L274.473 35.4935L274.883 33.536ZM268.763 31.88L268.131 33.7774L268.144 33.7817L268.763 31.88ZM263.219 29.288L262.121 30.9594L262.155 30.9812L263.219 29.288ZM259.115 25.04L257.396 26.0621L257.409 26.0829L259.115 25.04ZM259.979 10.136L258.33 9.00427L258.315 9.02656L259.979 10.136ZM267.467 4.23196L266.648 2.40762L267.467 4.23196ZM289.571 3.15196L289.1 5.09566L289.134 5.10364L289.571 3.15196ZM298.139 6.39195L299.986 7.15851L299.139 4.65958L298.139 6.39195ZM293.747 16.976L292.797 18.7358L295.594 17.7425L293.747 16.976ZM286.619 14.096L286.07 16.019L286.106 16.0291L286.619 14.096ZM275.027 13.736L275.637 15.6408L275.705 15.6177L275.027 13.736ZM272.435 15.32L270.863 14.0843L272.435 15.32ZM273.155 20.288L272.046 21.9521L272.138 22.0098L273.155 20.288ZM277.259 21.872L276.761 23.8089L276.825 23.8243L277.259 21.872ZM282.875 23.096L282.456 25.0516L282.465 25.0535L282.875 23.096ZM288.995 24.752L288.363 26.6493L288.416 26.6664L288.995 24.752ZM294.611 27.344L293.513 29.0154L293.547 29.0372L294.611 27.344ZM298.643 31.592L296.904 32.5792L296.937 32.6349L298.643 31.592ZM297.707 46.28L296.048 45.1632L296.043 45.1706L297.707 46.28ZM290.291 52.184L289.472 50.3596L289.462 50.3641L290.291 52.184ZM277.907 54.416V52.416C273.944 52.416 270.131 51.9323 266.463 50.9695L265.955 52.904L265.447 54.8384C269.46 55.8916 273.615 56.416 277.907 56.416V54.416ZM265.955 52.904L266.492 50.9773C262.84 49.9603 259.961 48.6929 257.792 47.2181L256.667 48.872L255.543 50.5258C258.174 52.315 261.487 53.7356 265.419 54.8306L265.955 52.904ZM256.667 48.872L258.494 49.6854L263.174 39.1734L261.347 38.36L259.52 37.5465L254.84 48.0585L256.667 48.872ZM261.347 38.36L260.271 40.0458C262.688 41.5884 265.436 42.8559 268.5 43.8604L269.123 41.96L269.746 40.0595C266.954 39.1441 264.518 38.0115 262.423 36.6741L261.347 38.36ZM269.123 41.96L268.537 43.8722C271.691 44.8387 274.84 45.328 277.979 45.328V43.328V41.328C275.262 41.328 272.507 40.9052 269.709 40.0477L269.123 41.96ZM277.979 43.328V45.328C280.037 45.328 281.824 45.1549 283.27 44.7499L282.731 42.824L282.192 40.898C281.238 41.165 279.857 41.328 277.979 41.328V43.328ZM282.731 42.824L283.341 44.7288C284.69 44.2971 285.932 43.6796 286.797 42.7354L285.323 41.384L283.849 40.0325C283.658 40.2404 283.173 40.5828 282.122 40.9191L282.731 42.824ZM285.323 41.384L286.793 42.7405C287.695 41.7636 288.187 40.5648 288.187 39.224H286.187H284.187C284.187 39.5151 284.104 39.7563 283.854 40.0274L285.323 41.384ZM286.187 39.224H288.187C288.187 37.3204 287.25 35.8018 285.677 34.8006L284.603 36.488L283.529 38.1753C284.068 38.5181 284.187 38.8236 284.187 39.224H286.187ZM284.603 36.488L285.677 34.8006C284.39 33.9814 282.809 33.3607 280.997 32.895L280.499 34.832L280.001 36.7689C281.55 37.1672 282.705 37.6505 283.529 38.1753L284.603 36.488ZM280.499 34.832L280.997 32.895C279.283 32.454 277.38 32.0153 275.293 31.5784L274.883 33.536L274.473 35.4935C276.514 35.9206 278.356 36.3459 280.001 36.7689L280.499 34.832ZM274.883 33.536L275.302 31.5804C273.357 31.1636 271.384 30.6299 269.382 29.9782L268.763 31.88L268.144 33.7817C270.27 34.474 272.377 35.0443 274.464 35.4916L274.883 33.536ZM268.763 31.88L269.396 29.9826C267.521 29.3576 265.819 28.5599 264.284 27.5947L263.219 29.288L262.155 30.9812C263.979 32.1281 265.974 33.0583 268.131 33.7773L268.763 31.88ZM263.219 29.288L264.318 27.6165C262.886 26.6758 261.725 25.4752 260.822 23.9971L259.115 25.04L257.409 26.0829C258.617 28.0607 260.192 29.6921 262.121 30.9594L263.219 29.288ZM259.115 25.04L260.834 24.0178C260.01 22.6309 259.531 20.778 259.531 18.344H257.531H255.531C255.531 21.2859 256.109 23.8971 257.396 26.0621L259.115 25.04ZM257.531 18.344H259.531C259.531 15.7032 260.237 13.3553 261.643 11.2454L259.979 10.136L258.315 9.02656C256.458 11.8127 255.531 14.9368 255.531 18.344H257.531ZM259.979 10.136L261.628 11.2676C263.059 9.18327 265.235 7.42741 268.287 6.05629L267.467 4.23196L266.648 2.40762C263.075 4.0125 260.26 6.19265 258.33 9.00427L259.979 10.136ZM267.467 4.23196L268.287 6.05629C271.266 4.71794 275.093 3.99996 279.851 3.99996V1.99996V-4.43459e-05C274.721 -4.43459e-05 270.293 0.76997 266.648 2.40762L267.467 4.23196ZM279.851 1.99996V3.99996C283.007 3.99996 286.089 4.36565 289.1 5.09566L289.571 3.15196L290.042 1.20826C286.718 0.402257 283.319 -4.43459e-05 279.851 -4.43459e-05V1.99996ZM289.571 3.15196L289.134 5.10364C292.181 5.78566 294.842 6.79881 297.14 8.12433L298.139 6.39195L299.139 4.65958C296.444 3.10511 293.394 1.95826 290.008 1.20027L289.571 3.15196ZM298.139 6.39195L296.292 5.6254L291.9 16.2094L293.747 16.976L295.594 17.7425L299.986 7.15851L298.139 6.39195ZM293.747 16.976L294.697 15.2161C292.175 13.8542 289.653 12.8317 287.132 12.1628L286.619 14.096L286.106 16.0291C288.289 16.6082 290.519 17.5057 292.797 18.7358L293.747 16.976ZM286.619 14.096L287.169 12.1729C284.657 11.4553 282.192 11.088 279.779 11.088V13.088V15.088C281.783 15.088 283.877 15.3926 286.07 16.019L286.619 14.096ZM279.779 13.088V11.088C277.692 11.088 275.852 11.3135 274.35 11.8542L275.027 13.736L275.705 15.6177C276.603 15.2945 277.931 15.088 279.779 15.088V13.088ZM275.027 13.736L274.418 11.8311C273.008 12.2823 271.729 12.9816 270.863 14.0843L272.435 15.32L274.008 16.5556C274.197 16.3143 274.647 15.9576 275.637 15.6408L275.027 13.736ZM272.435 15.32L270.863 14.0843C270.054 15.1129 269.643 16.3172 269.643 17.624H271.643H273.643C273.643 17.2027 273.76 16.871 274.008 16.5556L272.435 15.32ZM271.643 17.624H269.643C269.643 19.47 270.545 20.9518 272.046 21.9521L273.155 20.288L274.265 18.6239C273.749 18.2802 273.643 17.9859 273.643 17.624H271.643ZM273.155 20.288L272.138 22.0098C273.407 22.7601 274.968 23.3478 276.761 23.8089L277.259 21.872L277.757 19.935C276.191 19.5321 275.015 19.0638 274.173 18.5661L273.155 20.288ZM277.259 21.872L276.825 23.8243C278.559 24.2096 280.436 24.6187 282.456 25.0516L282.875 23.096L283.294 21.1404C281.282 20.7092 279.415 20.3023 277.693 19.9196L277.259 21.872ZM282.875 23.096L282.465 25.0535C284.454 25.4696 286.419 26.0015 288.363 26.6493L288.995 24.752L289.628 22.8546C287.539 22.1584 285.425 21.5863 283.285 21.1384L282.875 23.096ZM288.995 24.752L288.416 26.6664C290.31 27.2388 292.005 28.0243 293.513 29.0154L294.611 27.344L295.71 25.6725C293.858 24.4556 291.809 23.5131 289.574 22.8375L288.995 24.752ZM294.611 27.344L293.547 29.0372C294.939 29.912 296.054 31.082 296.904 32.5792L298.643 31.592L300.383 30.6047C299.216 28.5499 297.644 26.8879 295.676 25.6507L294.611 27.344ZM298.643 31.592L296.937 32.6349C297.751 33.967 298.227 35.7625 298.227 38.144H300.227H302.227C302.227 35.2454 301.648 32.6729 300.35 30.5491L298.643 31.592ZM300.227 38.144H298.227C298.227 40.6626 297.512 42.9876 296.048 45.1632L297.707 46.28L299.366 47.3967C301.262 44.5803 302.227 41.4813 302.227 38.144H300.227ZM297.707 46.28L296.043 45.1706C294.664 47.2396 292.521 48.9897 289.472 50.3596L290.291 52.184L291.111 54.0083C294.686 52.4022 297.487 50.2163 299.371 47.3894L297.707 46.28ZM290.291 52.184L289.462 50.3641C286.539 51.6965 282.718 52.416 277.907 52.416V54.416V56.416C283.081 56.416 287.515 55.6475 291.121 54.0038L290.291 52.184Z" fill="black" mask="url(#path-1-outside-1_36_85)"/>
</svg>
