<svg width="32" height="61" viewBox="0 0 32 61" fill="none" xmlns="http://www.w3.org/2000/svg">
<path d="M1.00024 1.13704L1.09332 1.1736L1.11411 1.14393C1.18178 1.04735 1.23778 0.999371 1.28212 1.00001L1.30936 1.0004C1.3537 1.00103 1.36698 1.08072 1.3492 1.23947L1.33828 1.33701C1.3205 1.49576 1.329 1.58762 1.36378 1.61259L1.38515 1.62793C1.41993 1.6529 1.46781 1.64451 1.52881 1.60275L1.56628 1.57709C1.62728 1.53533 1.66941 1.54159 1.69267 1.59587L1.70696 1.62923C1.73023 1.68351 1.75068 1.74493 1.76834 1.81348L1.77919 1.8556C1.79684 1.92416 1.86777 1.85711 1.99198 1.65444L2.0683 1.52992C2.1925 1.32725 2.23901 1.32236 2.20782 1.51525L2.18866 1.63377C2.15747 1.82665 2.15643 1.94281 2.18552 1.98223L2.2034 2.00646C2.2325 2.04589 2.30187 1.9828 2.41152 1.8172L2.47889 1.71544C2.58854 1.54984 2.6314 1.55423 2.60749 1.7286L2.59279 1.83574C2.56888 2.01011 2.5788 2.09834 2.62257 2.10043L2.64946 2.10172C2.69323 2.10381 2.72923 2.12567 2.75747 2.16728L2.77482 2.19285C2.80306 2.23446 2.83306 2.27161 2.8648 2.30429L2.88431 2.32438C2.91605 2.35707 2.97627 2.31729 3.06495 2.20505L3.11944 2.13609C3.20812 2.02385 3.29013 1.9286 3.36546 1.85033L3.41175 1.80225C3.48709 1.72398 3.4993 1.80638 3.4484 2.04945L3.41712 2.1988C3.36622 2.44186 3.40547 2.45545 3.53488 2.23955L3.61439 2.10689C3.7438 1.89099 3.7945 1.87543 3.76649 2.06021L3.74928 2.17376C3.72128 2.35854 3.73761 2.43046 3.79828 2.38952L3.83556 2.36436C3.89624 2.32341 3.94089 2.32325 3.96952 2.36386L3.98712 2.38881C4.01575 2.42942 4.03587 2.49171 4.04747 2.57566L4.0546 2.62725C4.06621 2.7112 4.10426 2.72785 4.16874 2.6772L4.20837 2.64607C4.27286 2.59542 4.35166 2.50833 4.44477 2.38482L4.50198 2.30893C4.59509 2.18542 4.65586 2.14421 4.6843 2.18531L4.70178 2.21057C4.73022 2.25167 4.76774 2.26966 4.81434 2.26454L4.84297 2.2614C4.88957 2.25628 4.89876 2.34638 4.87054 2.53171L4.8532 2.64559C4.82498 2.83091 4.82688 2.93957 4.8589 2.97156L4.87858 2.99122C4.91059 3.02321 4.94885 3.03933 4.99334 3.03957L5.02068 3.03972C5.06517 3.03997 5.12902 2.99095 5.21222 2.89266L5.26334 2.83227C5.34654 2.73398 5.40333 2.70293 5.4337 2.73911L5.45236 2.76134C5.48274 2.79753 5.49821 2.87163 5.49879 2.98365L5.49915 3.05249C5.49972 3.16452 5.55639 3.13378 5.66914 2.96028L5.73842 2.85367C5.85116 2.68016 5.91567 2.62947 5.93192 2.7016L5.94191 2.74592C5.95816 2.81804 5.96401 2.91664 5.95946 3.04172L5.95666 3.11858C5.95211 3.24366 5.99537 3.24704 6.08644 3.12873L6.1424 3.05603C6.23347 2.93771 6.29783 2.88736 6.3355 2.90498L6.35864 2.91581C6.39631 2.93343 6.43124 2.95801 6.46343 2.98955L6.48322 3.00894C6.51541 3.04048 6.52262 3.13564 6.50483 3.29442L6.49389 3.39198C6.4761 3.55076 6.48345 3.64557 6.51592 3.67641L6.53587 3.69535C6.56835 3.72618 6.6262 3.69241 6.70944 3.59403L6.76059 3.53358C6.84382 3.4352 6.91166 3.37603 6.96409 3.35606L6.99631 3.34379C7.04874 3.32382 7.06154 3.40473 7.03471 3.58652L7.01823 3.69822C6.9914 3.88 7.02587 3.90575 7.12165 3.77545L7.1805 3.69538C7.27628 3.56508 7.33363 3.53259 7.35256 3.59791L7.36419 3.63805C7.38311 3.70337 7.41216 3.74291 7.45134 3.75669L7.47541 3.76515C7.51459 3.77893 7.53577 3.83851 7.53895 3.9439L7.54091 4.00867C7.54409 4.11406 7.60514 4.07216 7.72406 3.88295L7.79713 3.76669C7.91605 3.57749 7.9545 3.59311 7.91249 3.81354L7.88667 3.94898C7.84466 4.16941 7.87928 4.19481 7.99051 4.02516L8.05886 3.92092C8.1701 3.75127 8.21611 3.74763 8.19691 3.91L8.18511 4.00977C8.16591 4.17215 8.1835 4.24087 8.23788 4.21594L8.2713 4.20062C8.32568 4.1757 8.39266 4.11869 8.47225 4.02959L8.52115 3.97485C8.60074 3.88575 8.62475 3.93813 8.59319 4.13197L8.57379 4.25108C8.54223 4.44492 8.544 4.55391 8.5791 4.57805L8.60068 4.59288C8.63578 4.61702 8.71319 4.53346 8.83292 4.34221L8.90648 4.22469C9.02621 4.03343 9.08987 3.98488 9.09747 4.07902L9.10214 4.13687C9.10974 4.23101 9.10872 4.34711 9.09907 4.48517L9.09314 4.57C9.0835 4.70806 9.09792 4.78484 9.13641 4.80035L9.16007 4.80988C9.19856 4.82539 9.23904 4.83585 9.28149 4.84128L9.30758 4.84461C9.35003 4.85004 9.40333 4.82789 9.46745 4.77816L9.50685 4.7476C9.57098 4.69787 9.6354 4.64738 9.70012 4.59613L9.73989 4.56463C9.80462 4.51338 9.84569 4.52233 9.8631 4.5915L9.8738 4.634C9.89122 4.70317 9.90201 4.78918 9.9062 4.89203L9.90876 4.95523C9.91294 5.05808 9.95117 5.07428 10.0234 5.00381L10.0679 4.96051C10.1401 4.89004 10.202 4.84592 10.2536 4.82814L10.2853 4.81721C10.3369 4.79943 10.3992 4.7544 10.4721 4.68212L10.517 4.63771C10.59 4.56543 10.6046 4.64176 10.5608 4.8667L10.5339 5.00491C10.4901 5.22985 10.5065 5.30161 10.5831 5.22021L10.6301 5.17019C10.7067 5.08879 10.7921 4.98476 10.8865 4.8581L10.9445 4.78028C11.0388 4.65363 11.0886 4.64038 11.0938 4.74054L11.097 4.80209C11.1023 4.90225 11.0961 5.0316 11.0784 5.19015L11.0675 5.28757C11.0498 5.44611 11.0828 5.47549 11.1666 5.37571L11.2181 5.3144C11.3019 5.21461 11.3712 5.15168 11.426 5.12559L11.4597 5.10957C11.5146 5.08348 11.5586 5.08486 11.5919 5.11371L11.6123 5.13144C11.6456 5.16029 11.6678 5.21716 11.679 5.30205L11.6859 5.35421C11.6972 5.43911 11.7176 5.50068 11.7471 5.53894L11.7653 5.56245C11.7949 5.60071 11.8503 5.57296 11.9318 5.47919L11.9818 5.42158C12.0632 5.32781 12.1033 5.3393 12.102 5.45605L12.1012 5.52779C12.1 5.64454 12.1229 5.69953 12.1702 5.69277L12.1992 5.68862C12.2465 5.68185 12.3039 5.6492 12.3715 5.59065L12.413 5.55467C12.4806 5.49613 12.5371 5.46574 12.5826 5.4635L12.6105 5.46213C12.656 5.4599 12.6686 5.54113 12.6485 5.70583L12.6362 5.80702C12.6161 5.97172 12.63 6.04968 12.6781 6.04091L12.7076 6.03552C12.7556 6.02676 12.8317 5.94651 12.9359 5.79478L12.9999 5.70155C13.1041 5.54983 13.1335 5.58862 13.088 5.81794L13.06 5.95885C13.0145 6.18816 13.0348 6.25002 13.1209 6.14442L13.1738 6.07953C13.2598 5.97394 13.3083 5.96398 13.3193 6.04967L13.326 6.10233C13.3369 6.18802 13.3665 6.22606 13.4149 6.21646L13.4446 6.21056C13.493 6.20096 13.5443 6.18373 13.5987 6.15887L13.6321 6.1436C13.6864 6.11874 13.7517 6.06619 13.8278 5.98595L13.8745 5.93665C13.9506 5.8564 13.9944 5.85844 14.0059 5.94275L14.0129 5.99455C14.0244 6.07886 14.0318 6.17342 14.0353 6.27824L14.0374 6.34265C14.0408 6.44746 14.0957 6.42122 14.202 6.26391L14.2674 6.16725C14.3738 6.00994 14.4045 6.04531 14.3595 6.27335L14.3318 6.41347C14.2868 6.64151 14.2931 6.73907 14.3506 6.70614L14.386 6.68592C14.4435 6.653 14.5078 6.60276 14.5789 6.5352L14.6227 6.49368C14.6938 6.42613 14.7655 6.35716 14.8377 6.2868L14.8821 6.24356C14.9543 6.1732 14.9968 6.17846 15.0096 6.25933L15.0175 6.30903C15.0303 6.38991 15.0355 6.4902 15.0331 6.6099L15.0316 6.68346C15.0291 6.80316 15.0365 6.89783 15.0538 6.96746L15.0644 7.01024C15.0816 7.07987 15.1355 7.05614 15.2261 6.93905L15.2818 6.8671C15.3723 6.75001 15.4515 6.66197 15.5193 6.603L15.5609 6.56676C15.6287 6.50778 15.6611 6.53863 15.6583 6.65932L15.6566 6.73347C15.6537 6.85416 15.654 6.96701 15.6573 7.07202L15.6594 7.13654C15.6627 7.24156 15.7221 7.20391 15.8375 7.02361L15.9084 6.91282C16.0239 6.73252 16.0662 6.73812 16.0356 6.92963L16.0168 7.0473C15.9861 7.23881 16.0187 7.26936 16.1145 7.13895L16.1734 7.05882C16.2692 6.92841 16.3358 6.87235 16.3732 6.89062L16.3962 6.90186C16.4336 6.92014 16.4434 7.00864 16.4257 7.16737L16.4148 7.26491C16.397 7.42364 16.4142 7.49339 16.4663 7.47415L16.4984 7.46233C16.5505 7.44309 16.6184 7.38372 16.7021 7.28421L16.7535 7.22307C16.8372 7.12357 16.895 7.08989 16.927 7.12203L16.9466 7.14178C16.9786 7.17392 17.0077 7.21319 17.0341 7.25959L17.0503 7.28811C17.0766 7.33451 17.1203 7.33677 17.1814 7.29489L17.2189 7.26916C17.2799 7.22728 17.3238 7.22917 17.3504 7.27482L17.3668 7.30287C17.3935 7.34853 17.4046 7.43375 17.4001 7.55852L17.3974 7.63519C17.393 7.75997 17.4167 7.81311 17.4685 7.7946L17.5004 7.78323C17.5523 7.76472 17.6121 7.72587 17.68 7.66666L17.7217 7.63028C17.7895 7.57108 17.8369 7.56399 17.8638 7.609L17.8803 7.63666C17.9072 7.68167 17.9182 7.76728 17.9132 7.89347L17.9101 7.97101C17.9051 8.0972 17.9273 8.15414 17.9768 8.14183L18.0071 8.13426C18.0566 8.12194 18.0916 8.14617 18.1123 8.20696L18.1251 8.2443C18.1458 8.30508 18.198 8.28577 18.2816 8.18637L18.333 8.12529C18.4166 8.02589 18.4641 8.01842 18.4755 8.10291L18.4825 8.15482C18.4939 8.2393 18.5235 8.27746 18.5713 8.2693L18.6007 8.26428C18.6485 8.25612 18.6764 8.29864 18.6844 8.39184L18.6893 8.44912C18.6972 8.54232 18.7632 8.48794 18.8871 8.28598L18.9633 8.16189C19.0872 7.95993 19.1628 7.88087 19.1902 7.92472L19.207 7.95167C19.2344 7.99552 19.253 8.06144 19.2631 8.14944L19.2692 8.20351C19.2792 8.29151 19.2901 8.37736 19.3018 8.46107L19.309 8.5125C19.3207 8.5962 19.3566 8.61819 19.4168 8.57846L19.4538 8.55404C19.514 8.51431 19.5704 8.48436 19.6229 8.46417L19.6552 8.45177C19.7077 8.43158 19.7334 8.4796 19.7323 8.59583L19.7317 8.66724C19.7306 8.78347 19.7594 8.82377 19.8179 8.78814L19.8539 8.76625C19.9125 8.73063 19.9827 8.66557 20.0644 8.57108L20.1146 8.51301C20.1963 8.41852 20.2313 8.44299 20.2195 8.58643L20.2123 8.67456C20.2005 8.818 20.2258 8.86715 20.2881 8.82202L20.3264 8.79429C20.3887 8.74915 20.4222 8.77734 20.427 8.87885L20.4298 8.94122C20.4346 9.04273 20.4521 9.11157 20.4825 9.14774L20.5011 9.16996C20.5315 9.20613 20.5739 9.21183 20.6282 9.18707L20.6616 9.17185C20.7159 9.14709 20.7846 9.08562 20.8678 8.98745L20.9189 8.92713C21.002 8.82895 21.0646 8.78327 21.1065 8.79009L21.1322 8.79428C21.1741 8.8011 21.1845 8.88821 21.1633 9.05563L21.1503 9.1585C21.1291 9.32591 21.1744 9.32409 21.2862 9.15302L21.3549 9.04791C21.4667 8.87684 21.5331 8.8214 21.554 8.88157L21.5669 8.91854C21.5878 8.97872 21.6049 9.04875 21.6181 9.12864L21.6262 9.17772C21.6394 9.25761 21.6585 9.32262 21.6834 9.37275L21.6987 9.40355C21.7236 9.45367 21.7846 9.41176 21.8818 9.27782L21.9415 9.19552C22.0388 9.06157 22.0815 9.06614 22.0699 9.20921L22.0628 9.29712C22.0512 9.44018 22.0849 9.46773 22.1641 9.37975L22.2127 9.32569C22.2919 9.23771 22.329 9.25683 22.324 9.38305L22.3209 9.46061C22.3159 9.58683 22.3528 9.60634 22.4317 9.51912L22.4801 9.46552C22.559 9.3783 22.5961 9.39727 22.5915 9.52243L22.5887 9.59933C22.5841 9.72449 22.5989 9.80036 22.6331 9.82693L22.654 9.84326C22.6882 9.86984 22.7161 9.91228 22.7378 9.97059L22.7511 10.0064C22.7728 10.0647 22.8271 10.0398 22.9142 9.93176L22.9677 9.86534C23.0547 9.75726 23.1089 9.73286 23.1302 9.79216L23.1433 9.8286C23.1646 9.8879 23.2043 9.90024 23.2625 9.86561L23.2983 9.84434C23.3564 9.80972 23.3745 9.87725 23.3524 10.0469L23.3389 10.1512C23.3168 10.3209 23.3629 10.317 23.4771 10.1397L23.5474 10.0307C23.6616 9.85335 23.7386 9.77096 23.7782 9.78356L23.8026 9.79129C23.8422 9.80388 23.8847 9.80919 23.9301 9.80723L23.9579 9.80602C24.0033 9.80405 24.025 9.86234 24.023 9.98088L24.0218 10.0537C24.0198 10.1723 24.0247 10.2733 24.0365 10.3568L24.0438 10.4081C24.0555 10.4916 24.093 10.5097 24.1561 10.4626L24.1948 10.4337C24.2579 10.3866 24.2956 10.4043 24.3078 10.4867L24.3153 10.5373C24.3275 10.6198 24.3776 10.6056 24.4657 10.4949L24.5198 10.4269C24.6079 10.3162 24.6398 10.3486 24.6154 10.5241L24.6004 10.632C24.5761 10.8075 24.6293 10.7854 24.7602 10.5658L24.8406 10.4308C24.9715 10.2112 25.0356 10.1614 25.0331 10.2814L25.0315 10.3551C25.029 10.4751 25.0359 10.5709 25.0524 10.6424L25.0625 10.6864C25.079 10.7579 25.1192 10.7692 25.183 10.7201L25.2223 10.69C25.2861 10.641 25.3534 10.5833 25.4241 10.5168L25.4675 10.476C25.5382 10.4095 25.5608 10.4655 25.5353 10.644L25.5196 10.7537C25.494 10.9322 25.5239 10.9698 25.609 10.8665L25.6614 10.803C25.7465 10.6997 25.7989 10.6798 25.8186 10.7434L25.8306 10.7824C25.8502 10.8459 25.8886 10.8617 25.9458 10.8297L25.9809 10.81C26.0381 10.778 26.0835 10.7758 26.1172 10.8036L26.1379 10.8206C26.1716 10.8484 26.1963 10.8991 26.2119 10.9728L26.2215 11.018C26.2372 11.0917 26.2741 11.1111 26.3324 11.0762L26.3682 11.0548C26.4265 11.0199 26.4468 11.0819 26.4289 11.2409L26.4179 11.3385C26.4001 11.4974 26.4148 11.5736 26.4619 11.567L26.4909 11.5629C26.5381 11.5563 26.5787 11.5665 26.6127 11.5935L26.6336 11.61C26.6676 11.637 26.7315 11.5877 26.8254 11.4622L26.8831 11.3851C26.977 11.2595 27.0251 11.2507 27.0273 11.3585L27.0287 11.4247C27.0309 11.5326 27.0749 11.534 27.1607 11.4292L27.2134 11.3648C27.2992 11.2599 27.3266 11.3037 27.2956 11.4962L27.2765 11.6144C27.2455 11.8069 27.2852 11.8192 27.3958 11.6512L27.4638 11.548C27.5743 11.38 27.6515 11.2972 27.6951 11.2996L27.7219 11.3011C27.7656 11.3034 27.7761 11.3901 27.7536 11.561L27.7397 11.666C27.7172 11.8369 27.73 11.9177 27.7783 11.9082L27.808 11.9024C27.8563 11.893 27.9155 11.8558 27.9857 11.7907L28.0288 11.7507C28.0989 11.6857 28.1223 11.7397 28.0988 11.9128L28.0844 12.0192C28.061 12.1923 28.0977 12.2125 28.1944 12.0799L28.2538 11.9984C28.3505 11.8657 28.4279 11.7821 28.4861 11.7475L28.5219 11.7262C28.58 11.6916 28.6109 11.7265 28.6145 11.8308L28.6168 11.8949C28.6204 11.9992 28.6384 12.0669 28.6708 12.0979L28.6907 12.117C28.7231 12.148 28.7628 12.1603 28.8099 12.1539L28.8389 12.15C28.886 12.1435 28.9221 12.1399 28.9472 12.139L28.9549 12.1387L28.9072 12.1005L29.0002 12.137M28.9691 47.8574L28.8774 47.8974L28.8821 47.9293C28.8973 48.0333 28.8537 48.0197 28.7511 47.8887L28.6881 47.8083C28.5856 47.6773 28.541 47.6787 28.5542 47.8126L28.5623 47.8949C28.5756 48.0289 28.5504 48.0751 28.487 48.0335L28.448 48.008C28.3846 47.9664 28.3197 47.9215 28.2533 47.8734L28.2126 47.8438C28.1462 47.7956 28.1194 47.8379 28.1322 47.9707L28.14 48.0524C28.1528 48.1852 28.1303 48.2375 28.0727 48.2093L28.0373 48.1919C27.9797 48.1637 27.9583 48.2184 27.9731 48.356L27.9822 48.4405C27.9971 48.5781 27.9909 48.6677 27.9638 48.7093L27.9472 48.7349C27.9201 48.7766 27.8654 48.7551 27.7831 48.6704L27.7326 48.6184C27.6503 48.5338 27.6101 48.5454 27.612 48.6533L27.6131 48.7196C27.615 48.8275 27.5644 48.8155 27.4616 48.6838L27.3984 48.6028C27.2955 48.471 27.2275 48.419 27.1943 48.4467L27.1739 48.4638C27.1407 48.4915 27.1111 48.5273 27.085 48.5713L27.069 48.5983C27.0429 48.6423 27.0163 48.685 26.9892 48.7266L26.9725 48.7521C26.9454 48.7937 26.9141 48.8256 26.8785 48.8478L26.8566 48.8614C26.821 48.8836 26.7716 48.8742 26.7084 48.8333L26.6696 48.8082C26.6065 48.7673 26.5373 48.7126 26.4621 48.6441L26.4158 48.602C26.3406 48.5335 26.3243 48.5997 26.3667 48.8005L26.3928 48.924C26.4353 49.1248 26.4113 49.1734 26.3207 49.0698L26.265 49.0061C26.1745 48.9025 26.1016 48.8393 26.0464 48.8167L26.0125 48.8028C25.9573 48.7801 25.9366 48.8364 25.9505 48.9717L25.9589 49.0548C25.9728 49.1901 25.9496 49.2409 25.8896 49.207L25.8527 49.1862C25.7926 49.1524 25.7415 49.139 25.6993 49.1462L25.6734 49.1506C25.6313 49.1578 25.6226 49.2417 25.6475 49.4024L25.6628 49.5011C25.6878 49.6617 25.6729 49.7313 25.6181 49.7097L25.5845 49.6964C25.5298 49.6749 25.4619 49.623 25.3807 49.5409L25.3308 49.4904C25.2496 49.4083 25.2156 49.4341 25.2287 49.5678L25.2368 49.6499C25.2499 49.7836 25.2306 49.8431 25.1789 49.8283L25.1471 49.8193C25.0954 49.8045 25.0163 49.7273 24.91 49.5875L24.8446 49.5016C24.7382 49.3618 24.6742 49.3189 24.6525 49.373L24.6392 49.4063C24.6176 49.4604 24.6228 49.5758 24.6547 49.7527L24.6744 49.8613C24.7064 50.0382 24.6918 50.1085 24.6307 50.0724L24.5932 50.0502C24.5321 50.014 24.4496 49.9289 24.3457 49.7947L24.2819 49.7123C24.178 49.5782 24.1518 49.622 24.2034 49.8437L24.2351 49.9799C24.2867 50.2016 24.2604 50.245 24.1562 50.1102L24.0921 50.0273C23.9879 49.8924 23.9094 49.8164 23.8566 49.7991L23.8241 49.7885C23.7713 49.7713 23.7496 49.8252 23.7589 49.9503L23.7647 50.0271C23.774 50.1521 23.7381 50.1736 23.657 50.0916L23.6071 50.0412C23.526 49.9591 23.4906 49.9819 23.5011 50.1094L23.5075 50.1877C23.5179 50.3152 23.5147 50.4115 23.4977 50.4764L23.4874 50.5163C23.4704 50.5813 23.4332 50.5997 23.3757 50.5717L23.3403 50.5545C23.2828 50.5264 23.2501 50.5553 23.2424 50.6412L23.2376 50.694C23.2298 50.7799 23.1744 50.7567 23.0714 50.6246L23.0081 50.5435C22.9051 50.4113 22.8425 50.3716 22.8202 50.4242L22.8065 50.4566C22.7842 50.5092 22.743 50.5186 22.6829 50.4847L22.646 50.4639C22.5859 50.4301 22.5472 50.4451 22.5299 50.5091L22.5192 50.5484C22.5019 50.6124 22.4592 50.6183 22.3911 50.5663L22.3493 50.5343C22.2813 50.4822 22.2394 50.49 22.2236 50.5575L22.2139 50.599C22.1982 50.6666 22.1946 50.7621 22.2033 50.8857L22.2087 50.9616C22.2174 51.0851 22.178 51.0986 22.0904 51.0019L22.0366 50.9425C21.9491 50.8459 21.9076 50.8545 21.9121 50.9683L21.9148 51.0383C21.9193 51.1522 21.9076 51.2291 21.8797 51.269L21.8626 51.2935C21.8348 51.3335 21.7695 51.2877 21.6667 51.1562L21.6036 51.0753C21.5008 50.9438 21.4304 50.8862 21.3922 50.9026L21.3688 50.9126C21.3306 50.929 21.3283 51.0273 21.3618 51.2076L21.3824 51.3185C21.416 51.4988 21.3979 51.5611 21.3283 51.5055L21.2855 51.4712C21.2159 51.4156 21.162 51.3959 21.1238 51.4121L21.1003 51.4221C21.0621 51.4384 21.0287 51.4655 21.0001 51.5037L20.9825 51.5271C20.9539 51.5652 20.9191 51.5892 20.8782 51.5992L20.853 51.6054C20.8121 51.6153 20.7693 51.6211 20.7248 51.6228L20.6974 51.6238C20.6528 51.6255 20.603 51.6151 20.5479 51.5927L20.5141 51.5789C20.459 51.5565 20.4162 51.5623 20.3859 51.5965L20.3672 51.6175C20.3368 51.6516 20.2748 51.6133 20.1811 51.5025L20.1235 51.4344C20.0298 51.3236 20.0029 51.3657 20.0428 51.5606L20.0673 51.6804C20.1072 51.8753 20.0896 51.9387 20.0146 51.8707L19.9685 51.8288C19.8935 51.7608 19.8505 51.7661 19.8396 51.8448L19.8329 51.8931C19.822 51.9718 19.7825 51.9852 19.7146 51.9333L19.6728 51.9014C19.6049 51.8496 19.5591 51.8485 19.5355 51.898L19.521 51.9285C19.4973 51.9781 19.4488 51.9707 19.3754 51.9063L19.3302 51.8667C19.2568 51.8023 19.2389 51.8649 19.2765 52.0546L19.2996 52.1711C19.3372 52.3608 19.3254 52.4375 19.2642 52.4012L19.2267 52.3788C19.1655 52.3425 19.1312 52.3677 19.1238 52.4544L19.1192 52.5076C19.1118 52.5943 19.0791 52.6229 19.0209 52.5935L18.9851 52.5753C18.927 52.5459 18.8844 52.5521 18.8574 52.5939L18.8408 52.6197C18.8138 52.6616 18.7369 52.5892 18.6101 52.4025L18.5321 52.2878C18.4053 52.1012 18.3372 52.049 18.3279 52.1314L18.3222 52.182C18.3129 52.2644 18.294 52.3247 18.2654 52.363L18.2478 52.3865C18.2193 52.4248 18.1773 52.4325 18.1221 52.4096L18.0881 52.3955C18.0328 52.3726 18.0161 52.438 18.0379 52.5916L18.0513 52.686C18.0731 52.8396 18.0486 52.8871 17.9777 52.8284L17.9341 52.7924C17.8632 52.7338 17.802 52.6974 17.7505 52.6832L17.7189 52.6745C17.6674 52.6604 17.6324 52.6839 17.6139 52.7452L17.6025 52.7828C17.584 52.8441 17.546 52.8608 17.4885 52.8329L17.4532 52.8157C17.3957 52.7878 17.356 52.8005 17.334 52.8538L17.3205 52.8865C17.2985 52.9398 17.2547 52.9433 17.1892 52.897L17.1489 52.8686C17.0834 52.8222 17.0409 52.8287 17.0215 52.8879L17.0095 52.9242C16.9901 52.9834 16.9635 53.026 16.9296 53.0521L16.9088 53.0682C16.8749 53.0943 16.8327 53.1014 16.7822 53.0895L16.7512 53.0822C16.7007 53.0702 16.6393 53.0335 16.5672 52.9721L16.5229 52.9343C16.4507 52.8728 16.4351 52.9407 16.476 53.1381L16.5012 53.2593C16.5421 53.4567 16.5382 53.5514 16.4894 53.5434L16.4595 53.5384C16.4107 53.5304 16.3811 53.5665 16.3708 53.6465L16.3645 53.6957C16.3542 53.7758 16.293 53.7394 16.181 53.5868L16.1122 53.4929C16.0002 53.3402 15.9465 53.3212 15.9513 53.4357L15.9542 53.5061C15.959 53.6207 15.9516 53.7073 15.932 53.7661L15.9199 53.8022C15.9003 53.861 15.8522 53.8544 15.7754 53.7824L15.7283 53.7382C15.6515 53.6662 15.5938 53.6379 15.5552 53.6531L15.5315 53.6625C15.4929 53.6778 15.433 53.6444 15.3518 53.5623L15.302 53.5119C15.2208 53.4298 15.1714 53.4202 15.1535 53.4831L15.1426 53.5217C15.1248 53.5846 15.0878 53.6036 15.0316 53.5786L14.9971 53.5633C14.9409 53.5383 14.9035 53.5565 14.8851 53.6179L14.8737 53.6556C14.8553 53.717 14.8463 53.8001 14.8468 53.9049L14.8471 53.9693C14.8476 54.0742 14.809 54.0895 14.7314 54.0155L14.6837 53.9699C14.606 53.8959 14.5434 53.8562 14.4957 53.8508L14.4665 53.8475C14.4189 53.8422 14.3826 53.8627 14.3576 53.9092L14.3422 53.9377C14.3172 53.9842 14.318 54.0897 14.3447 54.2543L14.3611 54.3555C14.3877 54.5201 14.3678 54.5782 14.3014 54.5299L14.2606 54.5003C14.1942 54.452 14.1344 54.4186 14.081 54.4002L14.0482 54.3889C13.9949 54.3704 13.9439 54.3574 13.8953 54.3498L13.8654 54.3451C13.8168 54.3374 13.777 54.3501 13.7462 54.3831L13.7272 54.4034C13.6964 54.4365 13.6428 54.4175 13.5665 54.3464L13.5196 54.3028C13.4432 54.2318 13.3852 54.2026 13.3454 54.2153L13.321 54.223C13.2812 54.2357 13.2611 54.2931 13.2605 54.3954L13.2601 54.4582C13.2595 54.5605 13.2446 54.63 13.2154 54.6668L13.1974 54.6894C13.1682 54.7263 13.1574 54.8051 13.165 54.9261L13.1696 55.0005C13.1772 55.1214 13.145 55.1513 13.0729 55.09L13.0286 55.0524C12.9566 54.9911 12.8849 54.9308 12.8136 54.8714L12.7699 54.8349C12.6986 54.7755 12.6308 54.7239 12.5665 54.6803L12.5269 54.6535C12.4626 54.6099 12.4528 54.6911 12.4975 54.8971L12.525 55.0236C12.5697 55.2296 12.5501 55.2885 12.4663 55.2002L12.4147 55.1459C12.3308 55.0576 12.2869 55.0607 12.2829 55.1552L12.2805 55.2133C12.2765 55.3078 12.2591 55.3717 12.2283 55.4049L12.2094 55.4253C12.1786 55.4585 12.1482 55.4926 12.1183 55.5277L12.0999 55.5493C12.0699 55.5843 12.0408 55.6215 12.0127 55.6606L11.9954 55.6847C11.9672 55.7239 11.8993 55.6722 11.7917 55.5295L11.7256 55.4419C11.6179 55.2992 11.5674 55.2873 11.574 55.406L11.5781 55.479C11.5847 55.5977 11.5622 55.65 11.5108 55.6359L11.4791 55.6272C11.4277 55.613 11.3581 55.5574 11.2703 55.4601L11.2163 55.4004C11.1286 55.3032 11.0754 55.2851 11.0568 55.3461L11.0453 55.3836C11.0267 55.4447 11.001 55.4895 10.9682 55.5179L10.948 55.5355C10.9151 55.5639 10.9151 55.6675 10.9478 55.8461L10.9679 55.9558C11.0007 56.1344 10.9737 56.1763 10.8871 56.0816L10.8338 56.0235C10.7472 55.9288 10.6598 55.8324 10.5716 55.7343L10.5175 55.6741C10.4293 55.576 10.3801 55.5671 10.3699 55.6472L10.3635 55.6965C10.3533 55.7766 10.3168 55.7967 10.254 55.7567L10.2154 55.7321C10.1527 55.6921 10.1235 55.729 10.1279 55.8427L10.1306 55.9126C10.135 56.0263 10.1036 56.0581 10.0364 56.008L9.99512 55.9772C9.92792 55.927 9.86532 55.8874 9.80733 55.8584L9.7717 55.8405C9.7137 55.8114 9.6763 55.8295 9.65948 55.8946L9.64915 55.9346C9.63233 55.9998 9.61245 56.058 9.58952 56.1091L9.57543 56.1406C9.5525 56.1917 9.54761 56.2842 9.56076 56.4179L9.56884 56.5001C9.58199 56.6338 9.53883 56.6387 9.43936 56.5147L9.37825 56.4385C9.27878 56.3146 9.22002 56.2837 9.20195 56.346L9.19084 56.3843C9.17277 56.4466 9.12684 56.4451 9.05303 56.3798L9.00769 56.3397C8.93388 56.2745 8.88537 56.2671 8.86214 56.3176L8.84787 56.3486C8.82464 56.3991 8.78841 56.4198 8.73918 56.4108L8.70892 56.4053C8.65969 56.3962 8.61382 56.3949 8.57131 56.4013L8.54519 56.4052C8.50268 56.4115 8.47936 56.4618 8.47521 56.556L8.47266 56.6138C8.46851 56.7079 8.46202 56.7967 8.45319 56.8802L8.44776 56.9314C8.43893 57.0149 8.41646 57.0671 8.38035 57.0881L8.35816 57.101C8.32205 57.122 8.2594 57.0823 8.1702 56.9818L8.1154 56.9201C8.0262 56.8196 7.99486 56.8515 8.02137 57.0158L8.03766 57.1168C8.06418 57.2811 8.05059 57.3536 7.9969 57.3344L7.96391 57.3226C7.91022 57.3034 7.85428 57.279 7.79608 57.2495L7.76032 57.2313C7.70213 57.2018 7.67703 57.248 7.68504 57.37L7.68996 57.4449C7.69797 57.5669 7.66776 57.6014 7.59934 57.5485L7.5573 57.5159C7.48887 57.463 7.44857 57.4744 7.43637 57.5501L7.42888 57.5967C7.41669 57.6724 7.39097 57.7172 7.35173 57.731L7.32761 57.7395C7.28837 57.7534 7.20621 57.669 7.08114 57.4864L7.00429 57.3742C6.87922 57.1916 6.83312 57.1898 6.86598 57.3686L6.88618 57.4785C6.91905 57.6574 6.88228 57.6769 6.77587 57.537L6.71049 57.4511C6.60408 57.3112 6.53659 57.2604 6.50803 57.2987L6.49047 57.3222C6.46191 57.3605 6.43342 57.3989 6.405 57.4375L6.38753 57.4612C6.35911 57.4999 6.35935 57.604 6.38823 57.7738L6.40598 57.8781C6.43486 58.0478 6.40652 58.0866 6.32096 57.9944L6.26839 57.9378C6.18282 57.8456 6.12422 57.8152 6.09257 57.8464L6.07313 57.8656C6.04148 57.8968 6.02306 57.9583 6.01786 58.05L6.01467 58.1064C6.00947 58.1981 5.98576 58.2475 5.94353 58.2545L5.91759 58.2589C5.87537 58.2659 5.82183 58.247 5.75697 58.2022L5.71712 58.1747C5.65226 58.1299 5.60296 58.1207 5.56922 58.1472L5.54849 58.1634C5.51475 58.1898 5.44805 58.1408 5.34839 58.0164L5.28715 57.9399C5.18749 57.8155 5.13651 57.8025 5.13422 57.9009L5.13281 57.9614C5.13052 58.0598 5.10148 58.0969 5.04568 58.0729L5.0114 58.0581C4.9556 58.0341 4.91437 58.0434 4.88772 58.086L4.87133 58.1122C4.84468 58.1548 4.82787 58.22 4.82092 58.3078L4.81665 58.3617C4.8097 58.4494 4.7583 58.4354 4.66248 58.3198L4.60359 58.2487C4.50776 58.133 4.46758 58.1447 4.48304 58.2838L4.49254 58.3692C4.508 58.5082 4.49211 58.5755 4.44485 58.571L4.41582 58.5682C4.36857 58.5637 4.30291 58.5171 4.21884 58.4284L4.16719 58.3739C4.08313 58.2851 4.06821 58.3546 4.12244 58.5824L4.15577 58.7223C4.21 58.9501 4.21096 59.0559 4.15864 59.0398L4.1265 59.03C4.07419 59.0139 4.01541 58.983 3.95018 58.9374L3.9101 58.9094C3.84487 58.8637 3.81083 58.8895 3.80798 58.9866L3.80623 59.0463C3.80338 59.1434 3.77499 59.1821 3.72107 59.1623L3.68793 59.1502C3.63401 59.1304 3.60447 59.1664 3.59932 59.2583L3.59616 59.3147C3.59101 59.4066 3.53415 59.3801 3.42558 59.2353L3.35886 59.1463C3.25028 59.0015 3.19255 58.973 3.18565 59.0608L3.18141 59.1148C3.1745 59.2027 3.12498 59.193 3.03285 59.0858L2.97623 59.0199C2.8841 58.9127 2.85561 58.9511 2.89076 59.1352L2.91236 59.2483C2.94751 59.4324 2.94892 59.5393 2.91659 59.569L2.89673 59.5872C2.8644 59.6168 2.83357 59.6499 2.80424 59.6864L2.78621 59.7089C2.75688 59.7454 2.71479 59.7527 2.65994 59.7308L2.62623 59.7174C2.57138 59.6955 2.52737 59.6984 2.4942 59.7262L2.47382 59.7432C2.44066 59.771 2.38985 59.7583 2.3214 59.7053L2.27934 59.6728C2.21089 59.6198 2.16674 59.6224 2.1469 59.6806L2.13471 59.7164C2.11486 59.7746 2.07891 59.796 2.02684 59.7805L1.99485 59.7709C1.94278 59.7554 1.8834 59.7232 1.81669 59.6742L1.77571 59.6441C1.70901 59.5951 1.65879 59.5838 1.62507 59.6102L1.60435 59.6265C1.57062 59.653 1.55251 59.6904 1.55002 59.7388L1.54925 59.7537L1.63638 59.8011L1.54475 59.8411M25.0002 29.137H24.9002L24.8917 29.2069C24.8641 29.4342 24.8295 29.4704 24.788 29.3153L24.7625 29.22C24.721 29.0649 24.6795 28.9581 24.638 28.8994L24.6125 28.8633C24.571 28.8046 24.5295 28.8402 24.488 28.9702L24.4625 29.05C24.421 29.1799 24.3795 29.1733 24.338 29.0303L24.3125 28.9425C24.271 28.7995 24.2295 28.7536 24.188 28.805L24.1625 28.8365C24.121 28.8879 24.0795 28.9275 24.038 28.9554L24.0125 28.9725C23.971 29.0003 23.9295 29.0448 23.888 29.1058L23.8625 29.1432C23.821 29.2043 23.7795 29.2119 23.738 29.1663L23.7125 29.1383C23.671 29.0926 23.6295 29.0967 23.588 29.1506L23.5625 29.1837C23.521 29.2376 23.4795 29.2448 23.438 29.2054L23.4125 29.1812C23.371 29.1419 23.3295 29.1564 23.288 29.225L23.2625 29.2671C23.221 29.3357 23.1795 29.3711 23.138 29.3735L23.1125 29.375C23.071 29.3774 23.0295 29.2998 22.988 29.1423L22.9625 29.0455C22.921 28.8879 22.8795 28.9 22.838 29.0818L22.8125 29.1935C22.771 29.3753 22.7295 29.4716 22.688 29.4823L22.6625 29.4888C22.621 29.4995 22.5795 29.4766 22.538 29.4203L22.5125 29.3856C22.471 29.3293 22.4295 29.233 22.388 29.0968L22.3625 29.0131C22.321 28.8769 22.2795 28.8285 22.238 28.8678L22.2125 28.892C22.171 28.9313 22.1295 28.9854 22.088 29.0544L22.0625 29.0967C22.021 29.1657 21.9795 29.1958 21.938 29.1872L21.9125 29.1819C21.871 29.1733 21.8295 29.1736 21.788 29.1826L21.7625 29.1882C21.721 29.1972 21.6795 29.1941 21.638 29.1786L21.6125 29.1691C21.571 29.1537 21.5295 29.1064 21.488 29.0271L21.4625 28.9785C21.421 28.8992 21.3795 28.8791 21.338 28.9182L21.3125 28.9422C21.271 28.9812 21.2295 28.9543 21.188 28.8614L21.1625 28.8043C21.121 28.7114 21.0795 28.7809 21.038 29.0128L21.0125 29.1552C20.971 29.3871 20.9295 29.4412 20.888 29.3176L20.8625 29.2416C20.821 29.118 20.7795 29.0285 20.738 28.9731L20.7125 28.9391C20.671 28.8837 20.6295 28.9254 20.588 29.0643L20.5625 29.1497C20.521 29.2886 20.4795 29.2683 20.438 29.089L20.4125 28.9787C20.371 28.7994 20.3295 28.7508 20.288 28.8329L20.2625 28.8834C20.221 28.9656 20.1795 29.0327 20.138 29.0848L20.1125 29.1168C20.071 29.1689 20.0295 29.1284 19.988 28.9955L19.9625 28.9138C19.921 28.7808 19.8795 28.7925 19.838 28.9487L19.8125 29.0448C19.771 29.201 19.7295 29.2985 19.688 29.3371L19.6625 29.3608C19.621 29.3994 19.5795 29.4428 19.538 29.491L19.5125 29.5206C19.471 29.5689 19.4295 29.5435 19.388 29.4446L19.3625 29.3838C19.321 29.2848 19.2795 29.2158 19.238 29.1768L19.2125 29.1528C19.171 29.1137 19.1295 29.0915 19.088 29.0863L19.0625 29.083C19.021 29.0778 18.9795 29.0737 18.938 29.0707L18.9125 29.0689C18.871 29.066 18.8295 29.0465 18.788 29.0106L18.7625 28.9885C18.721 28.9525 18.6795 28.918 18.638 28.8848L18.6125 28.8645C18.571 28.8314 18.5295 28.8587 18.488 28.9463L18.4625 29.0002C18.421 29.0879 18.3795 29.1202 18.338 29.0972L18.3125 29.083C18.271 29.06 18.2295 29.115 18.188 29.248L18.1625 29.3297C18.121 29.4627 18.0795 29.4897 18.038 29.4106L18.0125 29.362C17.971 29.283 17.9295 29.294 17.888 29.3951L17.8625 29.4572C17.821 29.5583 17.7795 29.5242 17.738 29.3549L17.7125 29.2508C17.671 29.0815 17.6295 28.9927 17.588 28.9843L17.5625 28.9791C17.521 28.9707 17.4795 29.034 17.438 29.1688L17.4125 29.2517C17.371 29.3865 17.3295 29.4529 17.288 29.4508L17.2625 29.4495C17.221 29.4474 17.1795 29.3737 17.138 29.2284L17.1125 29.1391C17.071 28.9938 17.0295 28.9903 16.988 29.1287L16.9625 29.2137C16.921 29.3521 16.8795 29.3732 16.838 29.2771L16.6625 28.8699C16.621 28.7735 16.5795 28.8134 16.538 28.9898L16.5125 29.0981C16.471 29.2744 16.4295 29.3446 16.388 29.3086L16.3625 29.2865C16.321 29.2506 16.2795 29.1862 16.238 29.0935L16.2125 29.0365C16.171 28.9438 16.1295 28.994 16.088 29.1871L16.0625 29.3057C16.021 29.4989 15.9795 29.5457 15.938 29.4461L15.9125 29.385C15.871 29.2855 15.8295 29.2333 15.788 29.2283L15.7625 29.2252C15.721 29.2202 15.6795 29.1793 15.638 29.1026L15.6125 29.0554C15.571 28.9786 15.5295 28.9382 15.488 28.9341L15.4625 28.9316C15.421 28.9275 15.3795 28.9612 15.338 29.0325L15.3125 29.0763C15.271 29.1476 15.2295 29.2078 15.188 29.257L15.1625 29.2871C15.121 29.3363 15.0795 29.32 15.038 29.2383L15.0125 29.1881C14.971 29.1064 14.9295 29.1201 14.888 29.2292L14.8625 29.2963C14.821 29.4054 14.7795 29.3491 14.738 29.1274L14.7125 28.9911C14.671 28.7694 14.6295 28.7741 14.588 29.0052L14.5625 29.1472C14.521 29.3783 14.4795 29.4449 14.438 29.3471L14.4125 29.287C14.371 29.1892 14.3295 29.2006 14.288 29.3211L14.2625 29.3951C14.221 29.5156 14.1795 29.5182 14.138 29.4031L14.1125 29.3323C14.071 29.2172 14.0295 29.1031 13.988 28.9902L13.9625 28.9208C13.921 28.8078 13.8795 28.7527 13.838 28.7555L13.8125 28.7572C13.771 28.7599 13.7295 28.8593 13.688 29.0551L13.6625 29.1755C13.621 29.3714 13.5795 29.3976 13.538 29.254L13.5125 29.1658C13.471 29.0223 13.4295 28.9842 13.388 29.0514L13.3625 29.0927C13.321 29.16 13.2795 29.129 13.238 28.9998L13.2125 28.9204C13.171 28.7913 13.1295 28.7349 13.088 28.7514L13.0625 28.7615C13.021 28.7779 12.9795 28.7828 12.938 28.7761L12.9125 28.7721C12.871 28.7654 12.8295 28.8017 12.788 28.881L12.7625 28.9296C12.721 29.0089 12.6795 29.0252 12.638 28.9785L12.6125 28.9498C12.571 28.9032 12.5295 28.9585 12.488 29.1157L12.4625 29.2123C12.421 29.3696 12.3795 29.3427 12.338 29.1317L12.3125 29.002C12.271 28.791 12.2295 28.7822 12.188 28.9755L12.1625 29.0942C12.121 29.2875 12.0795 29.2897 12.038 29.1008L12.0125 28.9847C11.971 28.7958 11.9295 28.7441 11.888 28.8294L11.8625 28.8818C11.821 28.9671 11.7795 29.0653 11.738 29.1763L11.7125 29.2445C11.671 29.3555 11.6295 29.3239 11.588 29.1496L11.5625 29.0425C11.521 28.8682 11.4795 28.7723 11.438 28.755L11.4125 28.7443C11.371 28.7269 11.3295 28.8036 11.288 28.9744L11.2625 29.0793C11.221 29.2501 11.1795 29.2992 11.138 29.2266L11.1125 29.182C11.071 29.1095 11.0295 29.0464 10.988 28.9928L10.9625 28.9599C10.921 28.9062 10.8795 28.9342 10.838 29.0438L10.8125 29.1112C10.771 29.2207 10.7295 29.1967 10.688 29.0391L10.6625 28.9422C10.621 28.7846 10.5795 28.7525 10.538 28.846L10.5125 28.9034C10.471 28.9969 10.4295 29.1014 10.388 29.217L10.3625 29.288C10.321 29.4035 10.2795 29.4572 10.238 29.449L10.2125 29.444C10.171 29.4358 10.1295 29.3679 10.088 29.2401L10.0625 29.1616C10.021 29.0339 9.9795 29.0015 9.938 29.0644L9.9125 29.1031C9.871 29.166 9.8295 29.2082 9.788 29.2296L9.7625 29.2428C9.721 29.2643 9.6795 29.2632 9.638 29.2397L9.6125 29.2253C9.571 29.2018 9.5295 29.1657 9.488 29.1171L9.4625 29.0872C9.421 29.0386 9.3795 28.9833 9.338 28.9212L9.3125 28.883C9.271 28.821 9.2295 28.8111 9.188 28.8534L9.1625 28.8794C9.121 28.9217 9.0795 28.9184 9.038 28.8695L9.0125 28.8395C8.971 28.7906 8.9295 28.8201 8.888 28.928L8.8625 28.9942C8.821 29.1021 8.7795 29.1914 8.738 29.2622L8.7125 29.3057C8.671 29.3765 8.6295 29.3695 8.588 29.2845L8.5625 29.2323C8.521 29.1474 8.4795 29.0548 8.438 28.9547L8.4125 28.8932C8.371 28.7931 8.3295 28.8023 8.288 28.9208L8.2625 28.9937C8.221 29.1122 8.1795 29.1953 8.138 29.2428L8.1125 29.272C8.071 29.3195 8.0295 29.3351 7.988 29.3188L7.9625 29.3088C7.921 29.2924 7.8795 29.2004 7.838 29.0325L7.8125 28.9294C7.771 28.7615 7.7295 28.6763 7.688 28.6738L7.6625 28.6722C7.621 28.6697 7.5795 28.7634 7.538 28.9533L7.5125 29.07C7.471 29.2599 7.4295 29.3646 7.388 29.3839L7.3625 29.3958C7.321 29.4151 7.2795 29.3671 7.238 29.2517L7.2125 29.1808C7.171 29.0654 7.1295 28.9717 7.088 28.8996L7.0625 28.8554C7.021 28.7833 6.9795 28.8595 6.938 29.0838L6.9125 29.2216C6.871 29.4459 6.8295 29.482 6.788 29.3299L6.7625 29.2365C6.721 29.0844 6.6795 29.0836 6.638 29.2341L6.6125 29.3266C6.571 29.4771 6.5295 29.4889 6.488 29.3619L6.4625 29.2838C6.421 29.1568 6.3795 29.1025 6.338 29.121L6.3125 29.1324C6.271 29.1508 6.2295 29.197 6.188 29.271L6.1625 29.3164C6.121 29.3904 6.0795 29.434 6.038 29.4473L6.0125 29.4554C5.971 29.4687 5.9295 29.416 5.888 29.2974L5.8625 29.2245C5.821 29.1058 5.7795 29.0464 5.738 29.0462L5.7125 29.0461C5.671 29.0459 5.6295 29.0996 5.588 29.2073L5.5625 29.2734C5.521 29.3811 5.4795 29.4034 5.438 29.3405L5.4125 29.3018C5.371 29.2389 5.3295 29.2246 5.288 29.259L5.2625 29.2801C5.221 29.3145 5.1795 29.3707 5.138 29.4488L5.1125 29.4968C5.071 29.5749 5.0295 29.4838 4.988 29.2235L4.9625 29.0635C4.921 28.8032 4.8795 28.6918 4.838 28.7292L4.8125 28.7523C4.771 28.7897 4.7295 28.8116 4.688 28.818L4.6625 28.8219C4.621 28.8282 4.5795 28.9158 4.538 29.0846L4.5125 29.1883C4.471 29.3572 4.4295 29.438 4.388 29.4308L4.3625 29.4263C4.321 29.4191 4.2795 29.3148 4.238 29.1134L4.2125 28.9897C4.17099 28.7883 4.1295 28.7955 4.088 29.0112L4.0625 29.1437C4.021 29.3594 3.9795 29.3704 3.938 29.1767L3.9125 29.0577C3.871 28.8641 3.8295 28.8209 3.788 28.9282L3.7625 28.9942C3.721 29.1015 3.6795 29.1742 3.638 29.2124L3.6125 29.2359C3.571 29.2741 3.5295 29.244 3.488 29.1456L3.4625 29.0851C3.421 28.9867 3.3795 28.9302 3.338 28.9155L3.3125 28.9065C3.271 28.8918 3.2295 28.8993 3.188 28.9289L3.1625 28.9471C3.121 28.9768 3.0795 29.0181 3.038 29.0713L3.0125 29.1039C2.971 29.1571 2.9295 29.1893 2.888 29.2005L2.8625 29.2074C2.821 29.2186 2.7795 29.2055 2.738 29.1683L2.7125 29.1454C2.671 29.1081 2.6295 29.0642 2.588 29.0137L2.5625 28.9826C2.521 28.9321 2.4795 28.9081 2.438 28.9107L2.4125 28.9123C2.371 28.9149 2.3295 28.9489 2.288 29.0143L2.2625 29.0545C2.221 29.1199 2.1795 29.149 2.138 29.1419L2.1125 29.1375C2.071 29.1303 2.0295 29.1081 1.988 29.0708L1.9625 29.0478C1.921 29.0105 1.8795 28.9967 1.838 29.0063L1.8125 29.0122C1.771 29.0219 1.7295 28.9894 1.688 28.915L1.6625 28.8692C1.621 28.7948 1.5795 28.7449 1.538 28.7197L1.5125 28.7041C1.471 28.6788 1.4295 28.6879 1.388 28.7313L1.3625 28.758C1.321 28.8015 1.2795 28.8532 1.238 28.9132L1.2125 28.9501C1.171 29.0102 1.1295 29.0821 1.088 29.166L1.0625 29.2176C1.021 29.3015 1.00024 29.3149 1.00024 29.2578V29.2402L1.10024 29.137H1.00024" stroke="black" stroke-width="2" stroke-linecap="round"/>
</svg>
